<?xml version="1.0" encoding="UTF-8" standalone="no"?>
<!-- Created with Inkscape (http://www.inkscape.org/) -->

<svg
   width="157.38892mm"
   height="155.80757mm"
   viewBox="0 0 157.38892 155.80757"
   version="1.1"
   id="svg1"
   xml:space="preserve"
   xmlns="http://www.w3.org/2000/svg"
   xmlns:svg="http://www.w3.org/2000/svg"><defs
     id="defs1"><clipPath
       clipPathUnits="userSpaceOnUse"
       id="clipPath66"><ellipse
         style="font-variation-settings:normal;opacity:1;fill:none;fill-opacity:0.112871;stroke:#000000;stroke-width:464.779;stroke-linecap:butt;stroke-linejoin:miter;stroke-miterlimit:4;stroke-dasharray:none;stroke-dashoffset:0;stroke-opacity:1"
         id="ellipse66"
         cx="5400.1484"
         cy="-3512.1704"
         rx="3477.1926"
         ry="3449.4021"
         transform="scale(1,-1)" /></clipPath></defs><g
     id="layer1-8-3"
     transform="matrix(-0.05914212,0.05914212,0.04479753,0.04479753,41.068627,-23.246441)"
     style="stroke:#000000;stroke-width:41.2127;stroke-dasharray:none;stroke-opacity:1"><path
       style="fill:#ffffff;fill-opacity:1;stroke:#000000;stroke-width:41.2127;stroke-linecap:round;stroke-miterlimit:4;stroke-dasharray:none;stroke-dashoffset:0;stroke-opacity:1"
       d="m 676.16631,451.48333 c -58.68315,-45.98125 -182.73263,-46.02191 -246.3624,0.0658 -0.94673,0.68573 -1.58293,0.31598 -1.41791,-0.84131 21.11609,-148.09041 220.77597,-153.192 249.06114,0.0136 0.21224,1.14957 -0.36067,1.4829 -1.28083,0.76191 z"
       id="rect3109-75-3" /><path
       transform="rotate(-15)"
       style="fill:#ffffff;stroke:#000000;stroke-width:41.2127;stroke-linecap:round;stroke-miterlimit:4;stroke-dasharray:none;stroke-dashoffset:0;stroke-opacity:1"
       d="m 288.50984,558.16826 c 13.06512,-38.38751 50.71197,-80.74058 87.2258,-82.5389 -44.40868,63.05815 -24.31119,175.96138 4.51771,287.61507 28.82225,111.62793 73.54847,219.67983 94.07072,271.59967 -26.45232,9.8992 -51.70068,22.3547 -77.06444,34.6809 C 382.27386,1025.3666 343.37573,926.87914 315.02797,826.04485 286.68021,725.21057 266.95096,621.51184 288.50984,558.16826 Z"
       id="rect3112-9-8" /><path
       style="fill:#ffffff;stroke:#000000;stroke-width:41.2127;stroke-linecap:round;stroke-miterlimit:4;stroke-dasharray:none;stroke-dashoffset:0;stroke-opacity:1"
       d="m 682.21747,464.4773 c -2.68452,-40.46099 -28.0868,-91.11464 -62.89101,-102.30216 26.57484,72.40331 -22.05935,176.25784 -78.80403,276.64556 -56.73159,100.36455 -127.8997,193.15867 -161.16051,237.99784 22.98888,16.40826 44.1532,34.9741 65.46246,53.44492 25.90417,-38.77514 88.96731,-123.83914 142.44698,-213.90064 53.47966,-90.0615 99.37586,-185.12047 94.94611,-251.88552 z"
       id="path2-53-5" /></g><g
     id="layer1-8-3-8"
     transform="matrix(-0.05914212,-0.05914212,0.04479753,-0.04479753,41.24777,178.97683)"
     style="stroke:#000000;stroke-width:41.2127;stroke-dasharray:none;stroke-opacity:1"><path
       style="fill:#ffffff;fill-opacity:1;stroke:#000000;stroke-width:41.2127;stroke-linecap:round;stroke-miterlimit:4;stroke-dasharray:none;stroke-dashoffset:0;stroke-opacity:1"
       d="m 676.16631,451.48333 c -58.68315,-45.98125 -182.73263,-46.02191 -246.3624,0.0658 -0.94673,0.68573 -1.58293,0.31598 -1.41791,-0.84131 21.11609,-148.09041 220.77597,-153.192 249.06114,0.0136 0.21224,1.14957 -0.36067,1.4829 -1.28083,0.76191 z"
       id="rect3109-75-3-99" /><path
       transform="rotate(-15)"
       style="fill:#ffffff;stroke:#000000;stroke-width:41.2127;stroke-linecap:round;stroke-miterlimit:4;stroke-dasharray:none;stroke-dashoffset:0;stroke-opacity:1"
       d="m 288.50984,558.16826 c 13.06512,-38.38751 50.71197,-80.74058 87.2258,-82.5389 -44.40868,63.05815 -24.31119,175.96138 4.51771,287.61507 28.82225,111.62793 73.54847,219.67983 94.07072,271.59967 -26.45232,9.8992 -51.70068,22.3547 -77.06444,34.6809 C 382.27386,1025.3666 343.37573,926.87914 315.02797,826.04485 286.68021,725.21057 266.95096,621.51184 288.50984,558.16826 Z"
       id="rect3112-9-8-9" /><path
       style="fill:#ffffff;stroke:#000000;stroke-width:41.2127;stroke-linecap:round;stroke-miterlimit:4;stroke-dasharray:none;stroke-dashoffset:0;stroke-opacity:1"
       d="m 682.21747,464.4773 c -2.68452,-40.46099 -28.0868,-91.11464 -62.89101,-102.30216 26.57484,72.40331 -22.05935,176.25784 -78.80403,276.64556 -56.73159,100.36455 -127.8997,193.15867 -161.16051,237.99784 22.98888,16.40826 44.1532,34.9741 65.46246,53.44492 25.90417,-38.77514 88.96731,-123.83914 142.44698,-213.90064 53.47966,-90.0615 99.37586,-185.12047 94.94611,-251.88552 z"
       id="path2-53-5-3" /></g><g
     id="layer1-8-3-4"
     transform="matrix(0.05914212,0.05914212,-0.04479753,0.04479753,116.07505,-23.246441)"
     style="stroke:#000000;stroke-width:41.2127;stroke-dasharray:none;stroke-opacity:1"><path
       style="fill:#ffffff;fill-opacity:1;stroke:#000000;stroke-width:41.2127;stroke-linecap:round;stroke-miterlimit:4;stroke-dasharray:none;stroke-dashoffset:0;stroke-opacity:1"
       d="m 676.16631,451.48333 c -58.68315,-45.98125 -182.73263,-46.02191 -246.3624,0.0658 -0.94673,0.68573 -1.58293,0.31598 -1.41791,-0.84131 21.11609,-148.09041 220.77597,-153.192 249.06114,0.0136 0.21224,1.14957 -0.36067,1.4829 -1.28083,0.76191 z"
       id="rect3109-75-3-9" /><path
       transform="rotate(-15)"
       style="fill:#ffffff;stroke:#000000;stroke-width:41.2127;stroke-linecap:round;stroke-miterlimit:4;stroke-dasharray:none;stroke-dashoffset:0;stroke-opacity:1"
       d="m 288.50984,558.16826 c 13.06512,-38.38751 50.71197,-80.74058 87.2258,-82.5389 -44.40868,63.05815 -24.31119,175.96138 4.51771,287.61507 28.82225,111.62793 73.54847,219.67983 94.07072,271.59967 -26.45232,9.8992 -51.70068,22.3547 -77.06444,34.6809 C 382.27386,1025.3666 343.37573,926.87914 315.02797,826.04485 286.68021,725.21057 266.95096,621.51184 288.50984,558.16826 Z"
       id="rect3112-9-8-5" /><path
       style="fill:#ffffff;stroke:#000000;stroke-width:41.2127;stroke-linecap:round;stroke-miterlimit:4;stroke-dasharray:none;stroke-dashoffset:0;stroke-opacity:1"
       d="m 682.21747,464.4773 c -2.68452,-40.46099 -28.0868,-91.11464 -62.89101,-102.30216 26.57484,72.40331 -22.05935,176.25784 -78.80403,276.64556 -56.73159,100.36455 -127.8997,193.15867 -161.16051,237.99784 22.98888,16.40826 44.1532,34.9741 65.46246,53.44492 25.90417,-38.77514 88.96731,-123.83914 142.44698,-213.90064 53.47966,-90.0615 99.37586,-185.12047 94.94611,-251.88552 z"
       id="path2-53-5-9" /></g><g
     id="layer1-8-3-4-0"
     transform="matrix(0.05914212,-0.05914212,-0.04479753,-0.04479753,116.28947,179.01049)"
     style="stroke:#000000;stroke-width:41.2127;stroke-dasharray:none;stroke-opacity:1"><path
       style="fill:#ffffff;fill-opacity:1;stroke:#000000;stroke-width:41.2127;stroke-linecap:round;stroke-miterlimit:4;stroke-dasharray:none;stroke-dashoffset:0;stroke-opacity:1"
       d="m 676.16631,451.48333 c -58.68315,-45.98125 -182.73263,-46.02191 -246.3624,0.0658 -0.94673,0.68573 -1.58293,0.31598 -1.41791,-0.84131 21.11609,-148.09041 220.77597,-153.192 249.06114,0.0136 0.21224,1.14957 -0.36067,1.4829 -1.28083,0.76191 z"
       id="rect3109-75-3-9-7" /><path
       transform="rotate(-15)"
       style="fill:#ffffff;stroke:#000000;stroke-width:41.2127;stroke-linecap:round;stroke-miterlimit:4;stroke-dasharray:none;stroke-dashoffset:0;stroke-opacity:1"
       d="m 288.50984,558.16826 c 13.06512,-38.38751 50.71197,-80.74058 87.2258,-82.5389 -44.40868,63.05815 -24.31119,175.96138 4.51771,287.61507 28.82225,111.62793 73.54847,219.67983 94.07072,271.59967 -26.45232,9.8992 -51.70068,22.3547 -77.06444,34.6809 C 382.27386,1025.3666 343.37573,926.87914 315.02797,826.04485 286.68021,725.21057 266.95096,621.51184 288.50984,558.16826 Z"
       id="rect3112-9-8-5-5" /><path
       style="fill:#ffffff;stroke:#000000;stroke-width:41.2127;stroke-linecap:round;stroke-miterlimit:4;stroke-dasharray:none;stroke-dashoffset:0;stroke-opacity:1"
       d="m 682.21747,464.4773 c -2.68452,-40.46099 -28.0868,-91.11464 -62.89101,-102.30216 26.57484,72.40331 -22.05935,176.25784 -78.80403,276.64556 -56.73159,100.36455 -127.8997,193.15867 -161.16051,237.99784 22.98888,16.40826 44.1532,34.9741 65.46246,53.44492 25.90417,-38.77514 88.96731,-123.83914 142.44698,-213.90064 53.47966,-90.0615 99.37586,-185.12047 94.94611,-251.88552 z"
       id="path2-53-5-9-7" /></g><g
     id="layer1-8-3-4-0-7"
     transform="matrix(0,-0.08363959,0.06335327,0,-20.090251,123.89663)"
     style="stroke:#000000;stroke-width:41.2127;stroke-dasharray:none;stroke-opacity:1"><path
       style="fill:#ffffff;fill-opacity:1;stroke:#000000;stroke-width:41.2127;stroke-linecap:round;stroke-miterlimit:4;stroke-dasharray:none;stroke-dashoffset:0;stroke-opacity:1"
       d="m 676.16631,451.48333 c -58.68315,-45.98125 -182.73263,-46.02191 -246.3624,0.0658 -0.94673,0.68573 -1.58293,0.31598 -1.41791,-0.84131 21.11609,-148.09041 220.77597,-153.192 249.06114,0.0136 0.21224,1.14957 -0.36067,1.4829 -1.28083,0.76191 z"
       id="rect3109-75-3-9-7-8" /><path
       transform="rotate(-15)"
       style="fill:#ffffff;stroke:#000000;stroke-width:41.2127;stroke-linecap:round;stroke-miterlimit:4;stroke-dasharray:none;stroke-dashoffset:0;stroke-opacity:1"
       d="m 288.50984,558.16826 c 13.06512,-38.38751 50.71197,-80.74058 87.2258,-82.5389 -44.40868,63.05815 -24.31119,175.96138 4.51771,287.61507 28.82225,111.62793 73.54847,219.67983 94.07072,271.59967 -26.45232,9.8992 -51.70068,22.3547 -77.06444,34.6809 C 382.27386,1025.3666 343.37573,926.87914 315.02797,826.04485 286.68021,725.21057 266.95096,621.51184 288.50984,558.16826 Z"
       id="rect3112-9-8-5-5-4" /><path
       style="fill:#ffffff;stroke:#000000;stroke-width:41.2127;stroke-linecap:round;stroke-miterlimit:4;stroke-dasharray:none;stroke-dashoffset:0;stroke-opacity:1"
       d="m 682.21747,464.4773 c -2.68452,-40.46099 -28.0868,-91.11464 -62.89101,-102.30216 26.57484,72.40331 -22.05935,176.25784 -78.80403,276.64556 -56.73159,100.36455 -127.8997,193.15867 -161.16051,237.99784 22.98888,16.40826 44.1532,34.9741 65.46246,53.44492 25.90417,-38.77514 88.96731,-123.83914 142.44698,-213.90064 53.47966,-90.0615 99.37586,-185.12047 94.94611,-251.88552 z"
       id="path2-53-5-9-7-0" /></g><g
     id="layer1-8-3-4-0-7-2"
     transform="matrix(0.08363959,0,0,0.06335327,32.250621,-20.090249)"
     style="stroke:#000000;stroke-width:41.2127;stroke-dasharray:none;stroke-opacity:1"><path
       style="fill:#ffffff;fill-opacity:1;stroke:#000000;stroke-width:41.2127;stroke-linecap:round;stroke-miterlimit:4;stroke-dasharray:none;stroke-dashoffset:0;stroke-opacity:1"
       d="m 676.16631,451.48333 c -58.68315,-45.98125 -182.73263,-46.02191 -246.3624,0.0658 -0.94673,0.68573 -1.58293,0.31598 -1.41791,-0.84131 21.11609,-148.09041 220.77597,-153.192 249.06114,0.0136 0.21224,1.14957 -0.36067,1.4829 -1.28083,0.76191 z"
       id="rect3109-75-3-9-7-8-5" /><path
       transform="rotate(-15)"
       style="fill:#ffffff;stroke:#000000;stroke-width:41.2127;stroke-linecap:round;stroke-miterlimit:4;stroke-dasharray:none;stroke-dashoffset:0;stroke-opacity:1"
       d="m 288.50984,558.16826 c 13.06512,-38.38751 50.71197,-80.74058 87.2258,-82.5389 -44.40868,63.05815 -24.31119,175.96138 4.51771,287.61507 28.82225,111.62793 73.54847,219.67983 94.07072,271.59967 -26.45232,9.8992 -51.70068,22.3547 -77.06444,34.6809 C 382.27386,1025.3666 343.37573,926.87914 315.02797,826.04485 286.68021,725.21057 266.95096,621.51184 288.50984,558.16826 Z"
       id="rect3112-9-8-5-5-4-6" /><path
       style="fill:#ffffff;stroke:#000000;stroke-width:41.2127;stroke-linecap:round;stroke-miterlimit:4;stroke-dasharray:none;stroke-dashoffset:0;stroke-opacity:1"
       d="m 682.21747,464.4773 c -2.68452,-40.46099 -28.0868,-91.11464 -62.89101,-102.30216 26.57484,72.40331 -22.05935,176.25784 -78.80403,276.64556 -56.73159,100.36455 -127.8997,193.15867 -161.16051,237.99784 22.98888,16.40826 44.1532,34.9741 65.46246,53.44492 25.90417,-38.77514 88.96731,-123.83914 142.44698,-213.90064 53.47966,-90.0615 99.37586,-185.12047 94.94611,-251.88552 z"
       id="path2-53-5-9-7-0-3" /></g><g
     id="layer1-8-3-4-0-7-2-4"
     transform="matrix(0,0.08363959,-0.06335327,0,177.47917,31.391479)"
     style="stroke:#000000;stroke-width:41.2127;stroke-dasharray:none;stroke-opacity:1"><path
       style="fill:#ffffff;fill-opacity:1;stroke:#000000;stroke-width:41.2127;stroke-linecap:round;stroke-miterlimit:4;stroke-dasharray:none;stroke-dashoffset:0;stroke-opacity:1"
       d="m 676.16631,451.48333 c -58.68315,-45.98125 -182.73263,-46.02191 -246.3624,0.0658 -0.94673,0.68573 -1.58293,0.31598 -1.41791,-0.84131 21.11609,-148.09041 220.77597,-153.192 249.06114,0.0136 0.21224,1.14957 -0.36067,1.4829 -1.28083,0.76191 z"
       id="rect3109-75-3-9-7-8-5-0" /><path
       transform="rotate(-15)"
       style="fill:#ffffff;stroke:#000000;stroke-width:41.2127;stroke-linecap:round;stroke-miterlimit:4;stroke-dasharray:none;stroke-dashoffset:0;stroke-opacity:1"
       d="m 288.50984,558.16826 c 13.06512,-38.38751 50.71197,-80.74058 87.2258,-82.5389 -44.40868,63.05815 -24.31119,175.96138 4.51771,287.61507 28.82225,111.62793 73.54847,219.67983 94.07072,271.59967 -26.45232,9.8992 -51.70068,22.3547 -77.06444,34.6809 C 382.27386,1025.3666 343.37573,926.87914 315.02797,826.04485 286.68021,725.21057 266.95096,621.51184 288.50984,558.16826 Z"
       id="rect3112-9-8-5-5-4-6-5" /><path
       style="fill:#ffffff;stroke:#000000;stroke-width:41.2127;stroke-linecap:round;stroke-miterlimit:4;stroke-dasharray:none;stroke-dashoffset:0;stroke-opacity:1"
       d="m 682.21747,464.4773 c -2.68452,-40.46099 -28.0868,-91.11464 -62.89101,-102.30216 26.57484,72.40331 -22.05935,176.25784 -78.80403,276.64556 -56.73159,100.36455 -127.8997,193.15867 -161.16051,237.99784 22.98888,16.40826 44.1532,34.9741 65.46246,53.44492 25.90417,-38.77514 88.96731,-123.83914 142.44698,-213.90064 53.47966,-90.0615 99.37586,-185.12047 94.94611,-251.88552 z"
       id="path2-53-5-9-7-0-3-6" /></g><g
     id="layer1-8-3-4-0-7-2-4-6"
     transform="matrix(-0.08363959,0,0,-0.06335327,124.80769,175.89781)"
     style="stroke:#000000;stroke-width:41.2127;stroke-dasharray:none;stroke-opacity:1"><path
       style="fill:#ffffff;fill-opacity:1;stroke:#000000;stroke-width:41.2127;stroke-linecap:round;stroke-miterlimit:4;stroke-dasharray:none;stroke-dashoffset:0;stroke-opacity:1"
       d="m 676.16631,451.48333 c -58.68315,-45.98125 -182.73263,-46.02191 -246.3624,0.0658 -0.94673,0.68573 -1.58293,0.31598 -1.41791,-0.84131 21.11609,-148.09041 220.77597,-153.192 249.06114,0.0136 0.21224,1.14957 -0.36067,1.4829 -1.28083,0.76191 z"
       id="rect3109-75-3-9-7-8-5-0-8" /><path
       transform="rotate(-15)"
       style="fill:#ffffff;stroke:#000000;stroke-width:41.2127;stroke-linecap:round;stroke-miterlimit:4;stroke-dasharray:none;stroke-dashoffset:0;stroke-opacity:1"
       d="m 288.50984,558.16826 c 13.06512,-38.38751 50.71197,-80.74058 87.2258,-82.5389 -44.40868,63.05815 -24.31119,175.96138 4.51771,287.61507 28.82225,111.62793 73.54847,219.67983 94.07072,271.59967 -26.45232,9.8992 -51.70068,22.3547 -77.06444,34.6809 C 382.27386,1025.3666 343.37573,926.87914 315.02797,826.04485 286.68021,725.21057 266.95096,621.51184 288.50984,558.16826 Z"
       id="rect3112-9-8-5-5-4-6-5-6" /><path
       style="fill:#ffffff;stroke:#000000;stroke-width:41.2127;stroke-linecap:round;stroke-miterlimit:4;stroke-dasharray:none;stroke-dashoffset:0;stroke-opacity:1"
       d="m 682.21747,464.4773 c -2.68452,-40.46099 -28.0868,-91.11464 -62.89101,-102.30216 26.57484,72.40331 -22.05935,176.25784 -78.80403,276.64556 -56.73159,100.36455 -127.8997,193.15867 -161.16051,237.99784 22.98888,16.40826 44.1532,34.9741 65.46246,53.44492 25.90417,-38.77514 88.96731,-123.83914 142.44698,-213.90064 53.47966,-90.0615 99.37586,-185.12047 94.94611,-251.88552 z"
       id="path2-53-5-9-7-0-3-6-7" /></g><ellipse
     style="font-variation-settings:normal;fill:#ffffff;fill-opacity:1;stroke:#000000;stroke-width:5;stroke-linecap:butt;stroke-linejoin:miter;stroke-miterlimit:4;stroke-dasharray:none;stroke-dashoffset:0;stroke-opacity:1"
     id="ellipse80"
     cx="78.598351"
     cy="77.82135"
     rx="43.972233"
     ry="42.699638" /><g
     transform="matrix(0.0126459,0,0,-0.01237885,12.198147,120.40879)"
     fill="#000000"
     stroke="none"
     id="g80"
     clip-path="url(#clipPath66)"><g
       id="g79"><path
         id="path67"
         d="m 12664.815,876.08911 c -15.25,-5.12159 -31.507,-24.69936 -38.628,-44.50558 -6.093,-19.18 -25.422,-45.25802 -43.707,-57.0441 -53.862,-35.68957 -97.547,-83.09248 -97.551,-105.29703 0,-29.60606 45.695,-72.57322 90.404,-86.44128 54.307,-16.38188 105.763,-8.82296 145.492,17.30587 39.792,26.16936 68.009,71.05892 76.149,130.02749 6.608,47.007 -8.135,90.72735 -33.681,119.04 -25.571,28.33894 -61.861,41.14489 -98.478,26.91463 z m 78.269,-49.39254 c 34.727,-42.5917 12.034,-145.21226 -40.685,-189.92829 -32.549,-27.75034 -74.209,-33.36149 -126.043,-17.24964 -74.812,23.25416 -67.424,56.48743 36.606,126.05547 51.836,34.16274 62.006,46.16624 57.943,66.84817 -4.059,18.81926 1.015,27.31175 18.301,32.5922 29.428,8.55755 34.615,6.74136 53.878,-18.31791 z M 0,0 Z m 7572.0047,2291.1579 c -26.0667,-10.6623 -55.958,-32.827 -70.7979,-51.8059 -14.8423,-18.1397 -37.7628,-35.4781 -50.8242,-37.9166 -12.0559,-2.4428 -22.0326,-9.0352 -19.9269,-14.8575 1.0974,-5.8167 -11.7862,-19.8902 -28.723,-32.3015 -27.4078,-19.0196 -42.5457,-34.1656 -49.6168,-64.7808 -7.0804,-30.6558 -6.0976,-76.7393 -1.2929,-158.7441 4.9525,-90.7733 8.228,-140.0943 14.2475,-170.6062 6.0204,-30.5155 14.7425,-42.0656 30.6106,-58.6666 54.3486,-54.3011 145.1692,-23.8858 186.354,60.5777 10.6194,21.4222 33.9807,92.8488 53.0597,155.3515 25.8454,91.8896 34.2239,135.7682 36.9814,222.5668 2.7852,83.4037 0.3351,130.3917 -14.1122,152.0684 -14.4335,21.6561 -40.8734,17.9706 -85.9593,-0.8852 z m 63.4461,-61.8349 c 8.2159,-78.2779 -6.2119,-190.5302 -31.2806,-290.8655 -25.0143,-100.1175 -60.7747,-188.7383 -95.0757,-214.0648 -38.8669,-28.8894 -61.9373,-28.9772 -88.5981,-0.2226 -18.4314,20.0105 -21.6981,35.8691 -22.7024,100.3959 -0.6561,42.1575 -6.7806,112.097 -13.4967,155.2645 -12.1777,71.813 -11.3702,81.7872 5.3218,111.051 9.8123,17.5568 35.6119,41.6275 56.6069,53.2281 20.9472,12.4132 53.8171,40.64 72.5841,64.5928 32.6495,39.6725 72.5976,66.7811 100.8123,67.6006 7.0589,-9e-4 13.3928,-18.9215 15.8284,-46.98 z M 0,0 Z m 10768.174,2768.1047 c -94.633,-34.7741 -89.874,-110.819 8.551,-144.2786 65.852,-22.4057 104.471,-36.7446 134.482,-51.6326 30.137,-14.9506 52.758,-30.997 87.229,-57.645 109.875,-85.8469 170.952,-195.195 165.039,-295.0736 -0.767,-12.9517 -2.955,-50.0443 -2.955,-50.0443 -7.91,9.357 -30.504,35.9534 -30.504,35.9534 -38.917,45.5619 -63.036,72.2978 -81.994,89.4787 -19.157,17.3612 -33.964,25.8763 -55.263,35.3385 -46.141,20.2375 -86.928,25.2045 -150.345,6.8881 -62.618,-18.0857 -150.764,-60.1981 -287.482,-134.9862 -119.147,-65.7055 -193.312,-110.3055 -241.406,-146.1236 -48.735,-36.2959 -73.786,-65.637 -97.788,-104.8344 -18.04,-29.9716 -27.337,-45.7863 -32.018,-65.4688 -4.693,-19.7374 -4.809,-43.4329 -4.539,-90.2046 0.782,-47.6679 1.175,-72.1255 7.384,-96.7631 6.252,-24.8036 18.189,-49.2577 42.263,-98.6856 20.42,-42.4638 32.506,-69.7734 39.418,-92.5375 6.944,-22.8708 8.812,-41.505 8.952,-67.668 0.379,-70.6402 10.54,-82.3248 84.354,-99.4795 61.45,-13.5089 152.772,-7.4311 210.06,13.3982 24.953,9.1035 76.9,40.7523 114.945,69.073 49.741,36.7744 83.881,58.3317 116.169,70.152 32.371,11.8506 63.639,14.2235 108.078,12.0588 63.108,-3.9259 84.653,-9.6013 151.886,-42.1814 33.808,-15.9524 58.639,-30.1665 88.918,-53.5558 29.848,-23.0567 67.212,-56.8456 123.923,-111.3682 77.162,-74.63 117.689,-114.2636 156.432,-136.9024 38.363,-22.4172 72.267,-26.3476 134.284,-31.1051 86.997,-6.6148 163.117,5.4163 206.599,34.3831 57.738,38.4438 87.116,126.5717 86.071,258.1083 -2.055,115.0628 -26.408,204.8819 -90.353,323.9834 -22.199,41.0124 -36.419,64.9469 -64.707,96.9698 -27.251,30.8498 -72.467,74.3073 -151.5,145.8914 -91.89,82.8922 -185.312,167.4582 -202.098,185.6283 -46.719,50.7514 -84.416,120.7826 -90.558,170.754 -0.01,0.095 -6.14,43.6338 -6.153,43.7283 -0.03,0 58.926,-0.9645 58.895,-0.964 36.555,-0.561 60.923,2.6362 63.964,8.779 2.023,6.2012 -7.117,9.9515 -28.446,11.2298 -18.279,1.0954 -29.457,4.8881 -25.399,9.386 14.125,16.4411 43.742,3.1923 97.535,-46.4449 54.126,-48.348 59.686,-52.0278 96.506,-52.4553 47.686,-0.4869 72.115,24.7374 60.891,62.5947 -7.121,23.7992 -75.956,84.3415 -164.647,147.566 -89.653,63.9107 -196.277,128.498 -283.7,169.2516 -105.446,49.6607 -186.486,74.5179 -256.307,81.3592 -48.739,4.8749 -66.148,2.8966 -104.666,-11.5511 z m 251.178,-53.2807 c 104.72,-40.9545 247.209,-118.4826 370.148,-205.5922 122.996,-86.4877 153.459,-117.8955 149.413,-144.801 -5.057,-34.0321 -44.66,-19.3841 -108.69,38.7942 -31.539,28.2915 -66.029,51.5585 -75.204,52.0896 -23.37,1.3529 -60.917,-11.5147 -71.063,-24.3391 -4.054,-6.0695 -17.251,-10.0687 -28.422,-9.4746 -35.568,1.8915 -43.331,-37.3716 -30.33,-89.8399 12.996,-52.446 46.898,-118.7773 94.629,-170.7088 16.119,-18.374 109.861,-102.2073 202.098,-185.1823 79.584,-71.4816 124.711,-114.7227 151.879,-145.5215 28.16,-31.9225 42.128,-55.7804 64.327,-96.7177 32.95,-61.629 53.579,-107.805 65.851,-154.2341 12.31,-46.5752 16.379,-93.7909 16.399,-159.4382 0.05,-166.3064 -33.392,-228.2715 -138.722,-253.4695 -32.222,-7.8458 -83.993,-8.0018 -131.775,-3.3572 -47.921,4.658 -92.567,14.2083 -111.258,26.9897 -12.48,9.0156 -81.755,73.9363 -149.997,139.3792 -53.277,51.5277 -88.905,83.4621 -118.23,105.781 -29.645,22.5623 -54.735,36.8056 -88.546,53.1977 -37.839,18.3706 -59.934,28.1139 -82.689,33.7801 -22.754,5.6659 -47.108,7.4859 -89.455,9.5376 -56.022,2.7142 -91.457,1.4858 -124.534,-9.3517 -33.059,-10.8316 -64.66,-31.5578 -112.893,-68.691 -91.388,-70.8495 -135.423,-87.4845 -233.089,-86.5047 -42.377,0.4252 -86.955,5.9332 -101.074,12.1172 -22.266,9.7522 -25.346,16.7924 -22.482,50.0312 3.773,51.5126 -13.685,108.104 -60.7,201.3075 -63.254,126.8509 -64.104,222.3632 1.29,320.4878 20.523,31.0709 44.308,56.5627 90.669,89.8629 45.741,32.854 116.309,75.1769 227.393,136.3433 113.769,62.8914 183.497,98.4088 231.082,116.9187 48.555,18.8872 78.41,22.029 117.393,20.6195 33.972,-1.2283 55.347,-4.4426 74.881,-15.7482 19.516,-11.2947 37.41,-30.7977 64.326,-64.8832 45.758,-58.3656 92.545,-100.4098 114.841,-101.7349 26.361,-1.5667 35.425,59.7187 21.076,137.4981 -14.859,80.969 -60.138,158.7111 -126.29,223.2671 -66.196,64.5978 -153.055,115.812 -251.236,144.9021 -68.103,19.949 -89.546,40.0558 -78.452,74.1669 17.119,51.4522 145.208,53.8856 277.436,2.5184 z M 0,0 Z m 9291.9434,2948.4894 c -13.1115,-10.0566 -8.6293,-56.5372 7.8168,-80.4897 8.246,-12.3925 47.0309,-41.6557 86.8258,-65.4538 62.2425,-37.6161 75.4875,-49.7894 112.526,-108.9784 44.1675,-68.3213 138.2034,-153.3655 196.1345,-175.3119 69.143,-26.505 139.9578,-0.4815 139.5881,52.5543 -0.2791,40.0284 -54.5902,117.1633 -108.6629,153.7684 -25.6349,18.3944 -93.7509,67.0225 -151.0681,110.001 -62.2169,45.8904 -122.5707,83.7089 -152.035,94.4932 -51.9423,19.3029 -119.0333,29.4709 -131.1252,19.4169 z m 113.0512,-43.3142 c 27.4105,-9.9889 89.8312,-49.3271 149.9878,-93.6646 57.1941,-42.8788 122.4898,-90.1609 144.9369,-105.4162 43.8687,-29.7443 86.8661,-83.9843 98.3239,-125.4681 5.1996,-17.6676 2.2132,-26.1478 -12.922,-37.0305 -30.2943,-21.7825 -65.8197,-10.4636 -139.2745,42.2433 -49.9852,35.8985 -76.5677,63.4569 -113.552,119.4761 -43.1682,64.4978 -58.4568,78.9736 -118.6694,115.8306 -129.815,79.0676 -131.8021,129.04 -8.8307,84.0294 z M 0,0 Z m 10078.017,2985.1358 c -76.019,-42.7541 -121.0351,-83.6898 -100.8128,-93.8037 10.3543,-5.1787 23.3628,0.6883 44.6008,18.8156 38.449,33.2531 104.999,71.6682 115.223,67.0434 4.075,-1.5409 10.236,-12.9399 13.345,-24.316 3.114,-12.134 22.581,-41.0211 42.022,-66.1208 40.917,-49.462 44.01,-63.1019 20.821,-96.3353 -12.104,-17.3794 -14.041,-34.8215 -8.78,-69.7986 6.33,-44.1406 5.329,-48.6958 -18.948,-65.3763 -17.201,-12.1377 -41.52,-18.9277 -77.04,-21.9266 -131.8738,-8.9525 -263.4199,77.7563 -265.0883,174.728 -0.08,11.948 -0.24,35.8267 -0.24,35.8267 0,4e-4 46.9683,5.8458 46.9713,5.8462 28.4186,3.7639 87.1547,34.7772 87.1132,41.6137 -0.097,15.9517 -53.0668,-9.5043 -113.9601,-18.5381 0,-5e-4 -55.8112,-8.3064 -55.8142,-8.3069 0.01,0.047 -2.8265,-32.8357 -2.8229,-32.7937 -4.7333,-50.3527 23.0922,-108.3859 71.0726,-149.5752 93.8787,-79.2979 249.3294,-102.1255 330.2344,-49.0614 38.44,25.7862 49.481,54.6313 35.058,93.4632 -8.235,22.0651 -6.27,33.4547 10.865,61.4066 23.156,40.7836 20.076,53.6648 -26.984,112.2493 -19.431,23.5848 -40.966,60.047 -47.173,80.5284 -7.225,21.2406 -18.499,37.9828 -25.617,38.0343 -7.124,0.052 -40.595,-14.8502 -74.046,-33.6028 z M 0,0 Z m 10875.838,4510.4867 c -11.232,-10.8466 -14.256,-54.3322 -15.102,-191.0901 -0.875,-114.3771 -6.625,-198.5017 -18.399,-259.6887 -11.762,-61.127 -29.582,-99.3237 -54.539,-119.6945 -18.328,-14.8781 -54.059,-27.9843 -110.146,-40.622 -45.839,-9.6089 -99.001,-26.1448 -117.278,-35.2691 -50.451,-25.1873 -76.33,-70.8413 -77.097,-112.0367 -0.767,-41.2237 23.574,-77.9846 73.564,-86.0962 38.248,-5.9965 103.478,13.8523 165.614,44.8636 62.186,31.0362 121.188,73.224 147.182,111.5816 24.426,35.1644 28.485,50.8445 28.408,102.3612 -0.117,77.6711 12.116,92.1218 88.652,103.9714 75.515,12.6524 105.087,36.0679 105.05,82.0732 -1.058,45.194 -16.372,59.6511 -87.87,81.788 -44.942,13.9379 -61.297,23.9043 -63.354,37.016 -2.057,11.479 2.023,18.0125 11.214,17.9562 8.175,-0.05 22.459,7.2522 32.666,16.2485 15.315,13.0862 17.332,24.5625 12.193,67.5723 -9.285,74.7481 -23.57,110.0583 -58.37,140.8752 -16.366,14.5421 -28.648,30.8411 -27.631,35.9179 4.073,15.215 -19.439,16.4449 -34.757,2.2722 z m 71.664,-119.7085 c 6.15,-19.2587 11.29,-51.7072 11.311,-72.3868 0.03,-32.2604 -3.025,-37.9692 -29.571,-48.4524 0.499,0.1972 -29.087,-11.4567 -28.588,-11.2605 1.035,-13.2268 -2.597,33.3882 -3.632,46.6151 -1.027,13.2301 -4.659,60.1256 -3.631,46.8955 -4.146,52.4275 -4.203,99.6802 -0.118,104.6818 10.199,14.1745 41.935,-23.432 54.229,-66.0927 z m 37.001,-224.1307 c 107.23,-23.6568 102.167,-96.3386 -10.087,-109.792 -34.72,-3.9179 -58.152,-12.5918 -78.564,-28.4844 0.06,0.046 -30.651,-23.0176 -30.589,-22.9714 0.04,0.1396 6.052,21.4113 6.092,21.5512 13.193,51.9525 26.364,129.5806 26.328,157.2837 0,7.4073 -0.04,30.2009 -0.04,30.2009 0.01,-0.012 24.521,-19.7863 24.536,-19.7978 13.321,-10.7234 40.843,-23.0445 62.322,-27.9902 z m -124.204,-250.3082 c -3.962,-73.6293 -33.489,-112.5966 -118.054,-160.0992 -152.831,-84.2483 -221.118,-84.5813 -221.359,-1.5817 -0.107,36.7932 29.369,75.6648 70.149,91.5519 17.189,5.9718 66.424,19.4732 110.141,29.9079 79.553,17.8855 133.6,48.3016 148.847,83.9604 11.179,24.5492 14.275,14.2 10.276,-43.7393 z M 0,0 Z m 1453.1005,4938.6856 c -26.6877,-19.0019 -60.9841,-48.7145 -73.7966,-65.0207 -30.7892,-39.779 -22.3868,-49.5814 71.9065,-73.9517 -0.044,0.012 70.3292,-17.9167 70.2846,-17.9055 -21.7307,-3.9586 -51.5749,-9.3733 -85.9759,-15.5389 -31.3301,-5.6153 -58.0036,-10.3322 -58.0036,-10.3322 -110.4671,-19.2399 -233.371,-41.9593 -412.97138,-70.9953 -224.32192,-37.3057 -286.63701,-41.2128 -354.41224,-36.9439 -58.26697,4.1845 -136.15883,-1.0463 -213.41123,-11.9493 -77.03655,-10.8725 -155.00186,-27.6127 -212.15806,-47.4744 -74.462,-25.6509 -148.00411,-58.6707 -194.1082597,-84.897 -46.6835583,-26.5558 -68.3788783,-47.8711 -42.0511703,-52.8301 6.871952,-1.3304 51.56957252,-8.9003 102.706447,-15.7993 51.309383,-7.9141 76.402773,-12.9178 73.568783,-19.2011 -2.83398,-6.2833 -33.592235,-13.8612 -94.193868,-25.093 -62.696598,-12.2135 -99.337331,-26.1787 -111.854663,-46.0343 -12.419753,-19.7008 -0.640849,-45.179 33.869185,-77.9424 25.96594,-24.5222 37.8962263,-42.076 34.757449,-51.6144 -5.118193,-12.3743 3.8158565,-15.4852 62.260974,-23.0903 -0.04121,0.01 16.837304,-2.0514 33.708126,-4.0418 16.870817,-1.9903 33.734067,-3.9159 33.692887,-3.9112 0.60258,0.4108 -21.505385,-14.6628 -43.624989,-29.4004 -22.119604,-14.7376 -44.250781,-29.1465 -43.647579,-28.7537 -48.733193,-31.5409 -88.393779,-57.6766 -88.429312,-60.9105 -0.120809,-10.9951 60.4194429,-14.2383 134.05956,-5.3819 37.04431,4.7553 59.0342,8.2286 92.96222,19.4187 31.9129,10.5255 83.48197,31.1973 169.45352,69.156 97.97045,43.4431 203.34337,91.2491 220.52694,97.1487 63.1086,21.7381 167.55768,32.6863 239.169,24.3157 81.6645,-9.8273 175.14245,-41.3236 258.04476,-81.3774 82.8901,-40.048 156.019,-89.0289 196.9092,-135.4182 18.7579,-22.3665 45.3415,-74.099 70.8543,-137.8118 23.8838,-59.3583 46.6808,-105.0005 72.1151,-144.7729 25.5317,-39.9249 54.4753,-75.124 91.1808,-112.7865 37.6931,-38.6266 81.1874,-77.1233 117.3592,-105.6521 36.2251,-28.5707 65.48,-47.4569 74.9303,-46.2862 20.9556,2.943 32.973,37.0281 28.0239,76.5964 -2.9682,17.6039 -2.9467,32.4381 -1.9478,32.5004 1.995,0.1244 15.9277,-18.6075 30.8686,-41.3639 41.7283,-65.1256 76.1586,-103.9143 132.4728,-132.8456 57.0823,-29.3259 134.427,-47.7911 265.9124,-75.0838 125.2043,-26.1497 201.4201,-45.7144 251.7862,-65.781 51.3352,-20.4526 80.7527,-43.0424 117.254,-79.4581 64.6061,-65.3214 102.1615,-84.4564 178.3403,-87.6554 23.9837,-1.0071 49.9025,0.2297 57.8763,3.4375 19.9146,6.237 29.9819,-4.2032 30.2271,-32.6884 0.2247,-26.1114 -4.7014,-32.2184 -74.0997,-91.9266 -72.3809,-61.3022 -95.06,-98.472 -100.3873,-171.778 -4.0515,-49.2733 2.8456,-90.8041 25.3925,-134.2032 22.6761,-43.6479 60.6423,-88.4339 119.4098,-146.8941 47.8599,-47.8992 77.8559,-82.7236 96.1708,-114.3809 18.4828,-31.9475 25.8353,-61.7004 29.2843,-102.6239 2.9591,-40.689 0.5971,-76.8286 -10.9055,-123.2052 -11.7332,-47.3067 -31.9496,-102.0732 -65.8461,-188.0091 -43.5258,-110.9198 -80.3853,-225.2037 -110.6023,-341.4275 -30.1556,-115.9873 -53.2525,-232.3103 -68.9551,-343.7791 -31.3155,-222.3007 -32.6326,-422.58381 0.5313,-528.89789 30.126,-97.29617 74.9065,-170.94896 138.9046,-224.62382 71.3615,-60.28686 189.7034,-80.42401 258.164,-45.67787 49.0923,24.62709 89.9925,61.3861 89.8045,80.40359 -0.063,6.33916 -16.4652,36.81459 -36.893,67.61354 -46.0215,70.00196 -64.5541,124.35582 -73.563,216.06297 -8.8807,94.59218 7.0946,186.13708 63.8992,335.64828 13.0211,33.8262 26.7926,71.4936 37.5717,102.3662 10.9486,31.358 19.4623,57.5402 22.8145,71.4183 6.7285,25.7653 10.1294,38.4904 18.3201,45.2971 8.1967,6.8116 21.2523,7.7403 47.3189,9.5897 98.2356,7.4603 205.0977,58.4506 275.398,127.4446 23.0225,21.469 61.3367,49.5273 86.4397,63.721 100.5155,53.3521 180.5929,146.7568 226.0771,257.027 27.9801,68.367 55.03,85.2945 162.7766,104.2446 94.408,16.8089 155.6092,38.4575 196.1315,75.4939 40.5124,37.0274 60.2102,89.366 71.5759,166.4596 7.6971,52.4831 13.7823,82.7412 27.0241,107.388 13.2551,24.6718 33.7353,43.8144 70.2944,73.583 68.1721,56.2851 81.8844,75.3935 89.2492,117.2807 11.1112,62.7853 -59.2023,140.2532 -168.7952,188.1612 -30.9622,13.6366 -98.771,40.1264 -154.7802,59.6131 -60.3638,21.421 -101.124,39.2066 -138.6565,64.3452 -37.5803,25.1705 -71.1744,57.204 -117.3999,106.5245 -41.383,44.2723 -73.6945,72.7013 -117.7863,96.9243 -43.8761,24.1045 -100.9573,44.7947 -190.7418,71.8967 -83.9774,25.3213 -125.0327,37.2379 -160.4548,50.3055 -34.4741,12.7179 -57.9525,24.5881 -101.9852,47.0302 -56.8941,29.4761 -82.4042,38.184 -119.0892,41.4242 -25.9159,2.4075 -54.9785,9.2243 -64.9672,15.5909 -34.3442,21.89 -84.613,11.3366 -169.302,-32.3109 -68.3241,-35.2844 -106.6355,-43.9965 -155.3557,-36.9324 -54.9067,7.2428 -90.0821,33.0217 -99.2929,73.5735 -5.1437,23.8348 -9.7204,38.1127 -21.2691,51.2047 -11.5037,13.0409 -30.1139,25.0567 -63.0788,43.8848 -50.0098,27.9872 -60.0148,36.8301 -60.0897,52.9849 -0.064,13.8468 5.8838,21.5036 19.816,26.4552 41.9204,13.73 12.636,43.7497 -48.0461,48.8682 -21.9829,1.6625 -51.7593,-2.2377 -91.6482,-11.5009 -81.4744,-19.6642 -127.7402,-17.8412 -155.5143,3.9285 -31.9062,25.6444 -49.0693,81.3425 -34.0967,113.3637 21.7393,48.6712 104.5961,80.7185 193.0834,71.2213 87.8271,-8.9893 146.257,-53.0102 196.6519,-144.5136 25.0754,-45.8271 40.1802,-63.2562 69.1373,-79.9498 41.8987,-24.7464 93.972,-32.7238 135.6594,-19.4742 45.7443,13.9316 50.6801,26.4401 21.6406,47.3632 -62.1327,43.6469 -63.2316,105.6538 -5.9385,183.7047 9.4335,12.9074 38.2837,42.2992 77.2938,81.4841 45.0454,45.2471 81.9311,81.9569 137.6253,138.8635 56.1563,57.3789 93.3181,96.3391 141.2512,146.2019 41.4638,43.133 73.9252,76.5169 88.345,87.8683 40.6279,31.7107 83.2643,36.7062 170.8261,18.8604 88.524,-17.7413 126.3371,-14.767 166.8829,19.3798 27.706,23.1125 31.6309,31.7022 31.436,67.7588 -0.399,73.79 -63.2282,123.8704 -162.5304,125.5422 -28.7836,0.7944 -37.761,3.9489 -28.8322,9.3782 16.7013,12.347 82.3858,36.3582 134.8226,50.7681 41.6957,11.3412 43.6045,10.6612 61.6553,-18.1699 35.8311,-58.101 100.9752,-85.7097 180.2593,-77.6223 88.1932,8.9962 152.9402,67.9278 128.5306,121.5341 -8.0336,19.1381 -40.3704,58.3863 -79.2906,99.4338 -38.8259,40.948 -84.7017,84.1907 -119.421,109.9958 -54.9198,41.5034 -169.9415,105.1692 -256.3902,141.511 -15.8974,6.3079 -9.9185,11.1985 39.5487,35.3613 29.2865,14.3656 68.6841,40.3922 104.1264,67.6631 35.4068,27.2436 66.4404,55.4158 78.8275,73.2663 17.7609,27.0697 6.8038,38.1031 -92.4093,91.4064 -109.3461,59.1772 -225.6988,99.1525 -345.6087,119.6551 -84.8297,13.7986 -147.7938,19.669 -211.5591,17.0488 -63.87,-2.6246 -129.567,-13.7949 -220.3567,-34.5942 -154.9795,-35.5049 -166.1723,-39.7917 -217.451,-78.2548 -28.6049,-21.0213 -89.1431,-75.2621 -130.665,-114.6262 -78.8852,-77.0107 -148.9407,-117.3352 -197.047,-117.2875 -25.7135,0.1855 -28.6692,4.2183 -28.5683,37.0114 0.1132,36.7679 -21.525,72.4872 -59.0035,96.6187 -34.6425,22.851 -88.7374,24.4777 -196.7035,7.0476 -63.3255,-9.9104 -162.2631,-17.9672 -220.6507,-17.382 -139.7828,1.9606 -232.4577,-19.9437 -300.4393,-67.6022 z m 317.0738,31.6985 c 54.3973,-0.4553 141.5404,5.7533 192.9717,14.7827 126.8345,20.6203 158.0967,18.7538 197.7025,-14.7728 26.618,-22.1769 33.4936,-36.7259 34.3816,-68.0841 0.8214,-52.083 22.5606,-62.24 89.8609,-47.5674 62.7083,13.6715 118.4594,47.759 202.0192,129.1649 34.0768,34.6685 88.7121,82.304 118.7834,103.6923 51.3368,37.0574 62.4154,42.2345 197.7057,71.7868 215.3767,46.5933 402.238,36.4914 598.2607,-32.4509 85.111,-30.1696 232.9827,-105.333 233.0166,-116.93 0.02,-6.8304 -23.9486,-28.9516 -55.0985,-52.9082 -31.2774,-24.0546 -69.3536,-49.6632 -98.1801,-64.6662 -76.3238,-40.1775 -99.862,-41.6287 -209.9676,-26.2949 -50.6089,7.9642 -100.944,11.6183 -111.9138,9.5931 -30.6851,-5.6651 -103.9999,55.0399 -132.7147,110.949 -27.9078,57.5106 -50.2719,62.2332 -85.0705,18.6885 -15.8158,-19.7908 -19.7882,-36.0315 -17.7981,-76.0289 1.9845,-44.9031 -0.9776,-54.1772 -24.7234,-79.3814 -38.5782,-39.8458 -85.1183,-54.0968 -195.9527,-61.7091 -114.9397,-8.4056 -159.1974,-25.5605 -205.936,-78.1852 -40.6191,-45.7343 -46.684,-80.7925 -21.9427,-119.2822 55.3035,-87.1407 219.9355,-115.2889 349.7016,-62.7723 96.3135,39.4544 181.9905,136.3786 212.7635,249.1768 13.89,50.7888 19.6645,59.8748 39.5395,63.5647 13.8898,2.5787 43.5338,-3.7252 68.3358,-12.9717 49.2285,-19.3257 132.0884,-29.4654 181.3081,-21.1293 47.1611,7.9875 191.7302,-45.5536 287.8605,-107.0819 87.6839,-54.6845 151.167,-110.6526 217.3158,-188.6658 52.9406,-60.9035 52.2213,-85.2673 -0.3632,-113.8749 -43.559,-23.1767 -70.4847,-24.9254 -121.2006,-10.2463 -46.77,13.3652 -79.7154,42.8908 -88.8222,81.1295 -1.8354,6.9738 -7.0753,26.9866 -7.0753,26.9866 -3.2729,-0.695 -58.2326,-12.397 -61.5052,-13.0955 -50.4735,-9.9379 -119.5997,-36.656 -173.7289,-62.8369 -54.288,-26.2577 -93.825,-52.0749 -85.8864,-62.0132 2.9893,-3.0067 37.7424,-4.5928 77.4548,-3.1836 121.1187,5.3166 186.8545,-29.3101 187.1891,-92.8622 0.07,-13.3794 -9.0278,-31.1271 -21.0012,-45.6842 -11.9772,-14.5617 -26.8182,-25.9536 -38.2471,-27.0547 -6.9042,-0.6652 -51.7728,6.4236 -101.4483,15.111 -99.4308,18.1984 -137.1735,12.6545 -186.6948,-20.3728 -13.4635,-9.0192 -46.3056,-42.2701 -89.145,-86.6977 -42.7508,-44.3356 -95.2349,-99.3432 -147.5244,-153.0177 -59.4529,-61.0276 -97.2198,-98.8006 -146.3213,-148.3646 -41.9536,-42.3489 -73.6948,-74.8163 -85.341,-90.3402 -18.8513,-25.7119 -29.1434,-40.1155 -34.7309,-54.0464 -5.5376,-13.8065 -6.2275,-26.7657 -5.6243,-48.4139 0.1734,-35.8666 5.2432,-52.6805 22.2865,-71.7975 12.021,-13.733 26.0699,-26.88 32.0488,-28.5954 19.1095,-7.015 -1.0397,-15.2268 -34.7887,-15.783 -58.6379,-0.9665 -89.9935,21.8395 -134.011,97.3566 -43.2223,74.0986 -85.9968,113.8511 -149.8394,137.5395 -38.7326,14.1131 -49.9267,15.2274 -123.4595,10.2261 -70.7214,-4.8102 -86.5554,-7.7956 -115.4635,-22.17 -43.7913,-21.8563 -70.6638,-58.2361 -70.6121,-97.793 0.092,-70.6373 60.0683,-125.271 133.8458,-123.3317 18.9849,0.499 57.7658,6.536 85.6941,13.5525 27.8439,6.9952 65.7843,13.258 84.6747,13.776 34.7842,0.9539 53.9438,-6.7131 34.9409,-13.5947 -18.9351,-7.4395 -30.7331,-33.0901 -23.69,-53.4959 5.0718,-14.2893 25.0457,-30.4009 69.0776,-54.9063 61.0243,-35.3279 75.1024,-52.5263 75.3318,-88.2529 0.1332,-20.7444 18.7312,-41.5747 47.0377,-57.9249 28.2417,-16.3127 66.3846,-28.2327 105.2563,-30.2408 48.4675,-2.5712 98.1653,11.0516 185.1496,53.9002 60.3457,30.1548 86.7445,34.7841 71.7332,10.6833 -9.8025,-16.3601 2.3579,-46.1768 20.358,-46.6933 5.991,-0.172 14.9056,6.3505 19.8211,14.8832 10.7798,17.5859 52.6561,28.5632 83.5967,22.1883 11.121,-2.1686 52.9226,-20.0699 91.1545,-39.7025 43.0493,-21.51 66.4894,-33.2229 100.9869,-46.082 35.3973,-13.1946 76.5176,-25.5265 159.4751,-50.9552 96.7471,-29.5376 156.4572,-51.2572 201.4247,-77.0994 45.2207,-25.9878 77.3611,-57.0621 120.3084,-107.4274 62.008,-72.2079 129.2534,-115.6937 243.8941,-156.1787 138.0621,-48.5707 193.5369,-74.3218 237.485,-108.4424 50.5686,-38.7337 67.9662,-64.7635 68.5626,-104.2416 0.5514,-36.4986 -17.0973,-59.6472 -90.2296,-118.9055 -34.0914,-27.629 -55.045,-48.5119 -68.7891,-74.0647 -13.7396,-25.5444 -20.3083,-55.801 -25.6029,-102.57 -9.3694,-76.9552 -28.0868,-128.3841 -70.3662,-164.2518 -42.2848,-35.8724 -108.0232,-56.1463 -211.448,-71.8548 -75.8424,-11.8958 -120.6402,-42.4657 -145.754,-104.2401 -33.8792,-86.4865 -86.0308,-156.7043 -151.5721,-204.6199 -113.4679,-82.0304 -174.5871,-127.8656 -225.7186,-161.5485 -48.138,-31.711 -75.8479,-44.4761 -107.5931,-53.5259 -35.9869,-10.1212 -81.0961,-17.8413 -101.1467,-18.2485 -25.08,-0.024 -38.3904,-0.8709 -47.8129,-10.0712 -9.4054,-9.1836 -15.038,-26.7968 -24.676,-60.8701 -4.3125,-17.1037 -13.3321,-44.9746 -24.1468,-76.5173 -10.6103,-30.9463 -23.7344,-67.6772 -35.2335,-98.8687 -26.2888,-70.2232 -42.5486,-121.4185 -51.8012,-165.706 -9.3476,-44.7418 -11.9732,-83.8582 -11.4644,-135.17916 1.0406,-104.96966 24.0866,-200.00608 68.0519,-271.10992 20.4478,-32.17984 30.4117,-49.371 26.0156,-62.12275 -4.4177,-12.81419 -23.1793,-21.14722 -60.2907,-36.37628 -28.0762,-12.18676 -65.2675,-16.58383 -104.599,-10.20307 -119.2436,19.34493 -208.2539,122.37673 -244.0484,271.87624 -12.8013,53.11759 -17.3285,130.84919 -14.4211,222.23304 2.9116,91.514 13.245,196.1938 30.1752,304.6216 16.9797,108.7448 40.3796,220.0801 69.6609,328.8275 29.3217,108.897 64.0755,213.5539 103.9556,312.1396 29.4283,73.6621 48.3332,125.334 60.2505,171.0221 11.7689,45.1189 16.1042,82.5557 15.6563,122.5193 -0.5917,52.7959 -5.7352,87.2594 -28.9584,128.2972 -22.7489,40.1998 -65.0008,89.3756 -137.3324,162.5462 -60.7342,60.1903 -89.0366,107.714 -104.7468,173.1116 -18.7974,83.8248 21.4401,169.5486 105.7965,230.4696 69.4836,50.5332 86.0607,88.5571 57.7908,128.3681 -17.1997,26.2995 -37.1943,32.2336 -67.0568,21.0333 -57.7595,-21.8993 -121.798,3.0104 -191.1642,69.0943 -27.3855,25.9654 -64.9729,56.1017 -85.2553,67.7303 -42.772,25.6624 -152.2788,59.1113 -272.8093,82.0288 -129.3693,24.7064 -209.1444,43.0704 -267.1224,69.8906 -57.3649,26.5366 -91.4297,60.717 -126.262,114.8452 -36.9097,57.5747 -76.6411,97.5241 -119.5029,117.5931 -32.867,15.3892 -64.7593,19.8652 -64.789,9.6404 -0.01,-2.6907 13.9062,-18.8052 31.817,-36.1531 25.8849,-25.842 31.8176,-39.7132 34.769,-73.4054 -0.4977,5.3237 1.4676,-15.5162 1.9653,-20.8399 0.5046,-5.3269 2.4744,-26.0302 1.9698,-20.7033 -0.037,0.022 -19.9085,11.7701 -19.9457,11.792 -16.7849,9.5258 -63.715,53.0099 -109.9152,100.0915 -46.8057,47.6988 -92.1051,98.4296 -108.8654,124.2209 -29.7349,47.3211 -64.1832,118.368 -94.5792,202.932 -32.2572,88.9384 -131.3621,178.0946 -277.2324,242.5073 -142.20887,63.6383 -245.32255,88.0672 -359.52464,80.0148 -50.75397,-3.8871 -92.83715,-11.7534 -145.56378,-29.8744 -53.93598,-18.5366 -113.41173,-45.6382 -205.11932,-88.0664 -90.42653,-41.6754 -185.04088,-78.6015 -217.03817,-87.7309 -59.568456,-17.1918 -121.16023,-24.0508 -121.060248,-14.9478 0.03574,3.2535 36.623521,28.9376 81.253059,57.8335 44.629539,28.8958 80.133979,56.8226 78.165149,60.8279 -1.96882,4.0053 -35.09335,10.5902 -73.306566,15.6115 -49.270898,6.848 -70.388631,13.029 -73.314441,22.1456 -1.912304,7.6792 -18.8790956,27.3864 -37.834004,45.1228 -20.970419,19.8197 -32.874225,39.4322 -30.739311,50.315 3.22695,18.6227 18.531552,22.8474 142.627721,45.5969 35.260091,7.2572 51.544191,14.4704 63.730651,30.7636 9.16246,11.2701 14.35769,25.4941 11.3873,30.8623 -2.96141,5.3522 -41.07445,15.1329 -86.318812,22.3018 -44.244856,6.4431 -81.4729891,14.8906 -81.438142,18.2205 0.056627,5.4111 37.555333,22.5537 85.210734,41.8439 46.56912,18.8506 106.54712,41.2152 146.26331,53.0423 50.90406,14.5539 124.2575,27.1904 192.96802,35.1047 69.09483,7.9586 135.35713,11.368 174.17915,6.4422 19.99565,-2.9075 57.43437,-1.5668 141.90038,8.6349 81.57444,9.8524 221.56855,29.8984 431.71266,65.9403 143.5688,24.2103 275.8591,48.9506 372.4048,67.9032 96.771,18.9968 158.4862,32.286 161.9647,34.4569 30.8853,18.0644 1.0567,27.694 -78.1182,25.5369 -46.1109,-1.0655 -103.483,4.7037 -148.6992,13.0812 -45.1777,8.3704 -78.0814,19.3429 -75.0472,28.2679 2.5283,8.31 18.7576,23.8532 39.4223,39.5679 20.6193,15.6802 45.8468,31.6648 66.1588,40.2918 49.7197,22.3654 136.8575,33.4656 253.6579,32.3774 z m 1222.2108,-2.9702 c 5.9707,-15.2151 20.7619,-38.4761 34.6568,-53.881 28.6641,-32.4946 28.7852,-33.4102 3.9901,-45.0768 -15.8316,-6.9741 -19.7845,-17.7136 -19.7615,-46.9112 0.019,-24.3315 -12.322,-63.4316 -29.8668,-100.7456 -17.6037,-37.4392 -40.235,-72.8096 -61.0819,-92.3191 -108.5092,-102.8923 -259.9449,-124.6077 -366.5181,-61.0551 -67.0648,40.0885 -73.4326,94.9533 -13.7219,140.8726 37.5924,29.4305 87.2009,41.524 197.0104,47.6442 90.9247,4.372 145.6564,26.5313 192.0116,81.1932 14.3333,16.9017 22.5162,28.1451 27.0764,41.2619 4.5717,13.1499 5.5549,28.2322 5.5474,53.4418 -0.018,60.5031 13.8252,77.1095 30.6575,35.5751 z M 0,0 Z m 9094.5104,5501.1229 c -36.2029,-3.3716 -113.9669,-15.5468 -175.6154,-28.6507 -59.3896,-12.9883 -176.3047,-26.3553 -256.0425,-29.4275 -163.9073,-6.8791 -240.6982,-23.0529 -303.3477,-60.7023 -35.503,-21.1726 -44.6509,-23.4133 -48.8095,-9.4706 -9.2624,32.138 -70.9349,94.9037 -111.6469,113.8647 -101.292,47.5195 -168.8021,32.0255 -307.5348,-70.9609 -68.8278,-50.9501 -108.2118,-77.6326 -174.288,-93.3882 -67.6792,-16.1379 -156.4562,-19.8566 -331.747,-29.1751 -123.2577,-5.6556 -232.7173,-13.6282 -259.7899,-15.9303 -0.01,7e-4 -41.3811,-4.3212 -41.3908,-4.3222 0,-0.1304 0.6993,40.3137 0.697,40.1826 0.5725,56.4781 -29.0622,100.6896 -95.0202,143.8246 -116.5507,75.1782 -298.4696,86.4491 -490.0924,25.2042 -75.2254,-24.5693 -173.5967,-69.1157 -265.6986,-118.047 -91.6233,-48.6769 -175.8907,-101.0924 -220.6773,-139.4614 -55.8169,-47.1625 -85.961,-102.1916 -89.6832,-153.0497 -3.7265,-50.9173 18.9859,-97.6051 68.9265,-130.2566 -0.356,0.2289 33.6558,-21.6278 33.2998,-21.399 -0.098,-0.1113 -36.6703,-41.2738 -36.7686,-41.3839 -19.0899,-21.8983 -52.4074,-62.5411 -71.4676,-86.1533 -58.9554,-75.1523 -105.3046,-62.034 -207.0511,62.7139 -75.197,92.2805 -113.8836,120.736 -169.1935,118.5482 -60.9655,-2.4117 -68.9404,-18.6205 -62.0227,-124.2063 6.803,-98.2839 30.3703,-155.82 77.7406,-193.1887 -0.076,0.061 29.3269,-23.6745 29.2517,-23.6138 -0.099,-0.099 -37.6031,-37.5099 -37.702,-37.6083 -43.6232,-41.6436 -48.4476,-69.7393 -21.8627,-123.2114 26.4464,-51.2705 14.8343,-75.1004 -69.7709,-132.7505 -82.5069,-57.5334 -104.2086,-87.2056 -103.5872,-146.3579 0.5341,-50.8339 30.0227,-93.7419 77.2929,-112.963 -0.032,0.013 35.2439,-14.9075 35.2115,-14.8938 -0.022,-0.01 -32.8957,-11.3103 -32.9176,-11.3178 -22.9442,-7.5521 -31.862,-15.79 -30.73,-27.4333 3.3057,-26.8631 -47.7906,-112.8271 -133.5933,-218.6819 -71.6195,-87.9218 -117.313,-155.8727 -144.0842,-223.2713 -26.651,-67.0962 -34.0526,-132.7665 -28.4502,-212.8323 10.0452,-150.7856 67.8388,-265.2439 184.5591,-368.0873 120.5443,-106.7158 194.5118,-119.602 392.8012,-58.9566 38.8129,11.9873 97.0513,22.6712 128.025,23.9362 53.1622,2.0673 58.1658,1.131 74.5621,-19.6048 24.5363,-29.8469 69.0383,-49.2534 122.2758,-51.9721 40.1825,-1.443 44.2291,-3.1938 38.4314,-17.5254 -11.5958,-29.5049 -2.3866,-164.4453 13.4798,-213.5439 9.437,-26.1446 31.4045,-76.5011 49.0119,-110.4332 23.3092,-43.1424 35.2818,-83.6931 36.0701,-130.8208 0.7885,-47.1359 -9.608,-100.8274 -31.0188,-170.6994 -40.0118,-129.2384 -45.552,-212.8947 -21.8636,-308.6647 31.3216,-123.1878 85.8119,-211.3181 209.5389,-336.2158 44.9324,-45.9167 79.9515,-94.4057 111.0193,-152.3777 66.6984,-126.0036 125.9343,-164.4885 225.3547,-142.1632 98.3093,21.3924 157.3024,77.2457 217.8686,197.315 29.0525,58.2081 49.8517,96.743 70.789,128.9801 21.0237,32.3702 42.8438,59.4324 74.3899,94.6619 41.0525,46.1383 64.3756,74.3722 79.4425,102.9315 15.0204,28.4711 21.5867,56.8894 28.9144,102.4154 6.864,42.0306 12.2863,65.644 27.5815,84.333 15.2978,18.6921 40.505,32.4885 86.969,54.6881 85.0042,41.1593 104.6161,132.296 54.3839,256.1963 -27.2438,67.396 -35.3443,117.6982 -17.4137,172.3964 17.9237,54.6772 61.8767,113.7433 138.7802,198.4285 48.6046,54.0303 105.1624,122.6753 124.891,154.2255 45.4267,70.3962 94.2677,190.7622 97.6533,239.1872 0.01,0.098 2.5256,36.8756 2.5323,36.9742 -0.1774,-0.01 -90.7227,-1.0854 -90.9002,-1.0874 -81.7385,-1.2018 -93.9681,0.6697 -126.4745,18.5653 -19.3825,11.108 -50.9513,38.0995 -71.4772,59.312 -20.148,22.1654 -59.4231,76.0603 -93.4365,126.2082 -33.8505,49.9078 -61.9507,95.3603 -58.9566,97.8472 1.996,1.6579 35.8463,-39.9336 74.911,-92.9075 45.0904,-60.4945 71.8052,-93.9001 93.3712,-112.0871 21.6877,-18.2895 38.6698,-21.702 64.9139,-22.1635 73.4723,-1.292 340.3921,91.2478 439.7001,151.7231 93.2729,57.2577 130.7607,161.7078 81.2552,230.4456 -24.8573,34.0922 -24.5358,33.7659 110.3627,2.9343 135.6727,-31.3302 228.482,-70.7499 296.2883,-134.2225 67.7572,-63.4266 110.2395,-150.6525 145.1106,-276.3297 24.2405,-87.0721 41.8734,-114.327 81.4953,-127.3371 38.642,-12.2198 71.028,-6.7993 111.2941,19.1504 39.2531,25.957 50.1085,55.9643 59.1864,158.0643 9.1838,93.4722 31.0858,136.0989 92.6453,176.0428 71.7572,47.0812 173.0709,55.8988 249.6935,23.8511 55.0413,-23.5314 111.5046,-77.9675 122.97,-117.4213 -0.029,0.1122 8.4361,-32.5478 8.407,-32.4359 -0.032,4e-4 45.7513,0.9434 45.722,0.9428 -0.031,4e-4 45.7569,0.9432 45.7276,0.9425 -0.3106,0.409 14.7441,-19.4123 29.796,-39.1401 15.052,-19.7279 30.1012,-39.3667 29.7906,-38.9614 31.8639,-43.1942 63.6466,-80.5642 69.7698,-82.9347 6.1208,-3.1413 17.2691,0.6491 25.3311,9.0981 13.11,13.8371 15.1333,13.015 38.6908,-9.5674 28.7016,-28.0477 90.7944,-49.9085 143.673,-50.2176 63.9941,-0.3742 120.762,32.2319 150.8959,84.7679 21.1063,39.6651 18.8919,66.4561 -9.8556,108.367 -16.447,24.8502 -19.5569,36.4803 -11.425,36.3714 22.3752,-0.2998 64.8546,44.6214 70.778,74.6713 13.8713,64.787 36.1255,85.4724 158.0376,148.3997 81.2752,41.1721 115.8372,70.8053 148.1932,125.6264 64.636,106.3659 43.007,244.7901 -54.513,342.9777 -42.176,41.5991 -42.908,45.7763 -15.495,44.717 50.141,-1.9377 79.624,-26.8885 121.848,-96.1254 59.4,-100.7314 125.178,-136.6962 194.289,-110.6192 51.975,19.4131 63.117,46.3544 60.777,149.2585 -1.698,57.1514 -1.27,87.8544 14.498,109.6917 15.808,21.8927 46.851,34.7927 106.59,57.4084 100.941,38.2761 145.009,70.4389 175.468,126.6955 44.808,80.1058 36.55,175.7488 -20.841,253.7261 0.04,-0.048 -7.411,9.835 -14.857,19.7656 -7.447,9.9307 -14.895,19.9092 -14.858,19.8604 -0.208,-0.1226 27.795,16.473 27.587,16.35 43.496,24.8501 136.406,44.4477 283.168,63.5495 73.424,9.6297 149.39,24.0403 171.691,30.4142 22.455,6.992 43.956,12.3673 48.019,12.405 4.086,0.038 -8.168,-25.9808 -27.573,-56.9818 -39.825,-63.2871 -50.784,-124.6907 -35.31,-175.9819 15.46,-51.243 57.369,-92.4385 123.199,-114.7807 54.035,-17.9935 100.076,-11.85 143.882,20.2043 42.774,30.355 57.209,56.031 77.556,139.9075 17.908,74.1401 35.45,118.2896 74.258,149.0687 39.224,31.1086 98.246,47.6042 201.111,70.9312 137.214,30.6801 216.205,69.4591 253.544,115.5972 35.652,45.0106 42.502,92.9036 24.77,133.1431 -17.787,40.3623 -60.153,73.0802 -123.269,89.7898 -25.15,6.6835 -39.727,9.9423 -73.934,8.4746 -39.314,-1.6867 -81.635,-7.5142 -187.916,-17.518 -84.943,-7.9909 -144.85,-11.1483 -186.744,-11.402 -43.315,-0.2622 -74.881,2.4012 -110.301,7.5546 -78.815,11.7329 -177.401,32.5871 -285.366,61.7856 -108.388,29.3129 -220.879,65.5654 -329.552,106.7049 -116.27,44.4483 -226.016,85.1294 -243.935,86.786 -48.17,4.4535 -72.726,-22.8284 -72.631,-81.0763 0.08,-47.569 0.08,-47.415 -36.798,-50.8278 -84.04,-6.6913 -297.136,40.0177 -588.4243,146.7113 -92.2683,33.8153 -240.9891,88.684 -276.8361,101.0155 -60.6909,21.5173 -152.739,43.2099 -239.0746,58.4132 -86.7614,15.2783 -168.3648,24.1089 -210.3746,20.0542 z m 413.7229,-106.1094 c 40.9573,-13.5083 199.92,-70.5529 308.5792,-109.6365 261.8705,-94.4412 394.3165,-124.8843 524.8425,-137.0265 128.078,-11.9145 145.47,-2.7424 145.353,73.7128 -0.06,35.8081 4.023,50.1593 16.314,53.9152 9.219,2.0852 120.983,-39.6433 248.024,-87.4935 132.386,-49.2055 267.329,-90.5712 392.455,-121.5672 123.925,-30.6988 231.115,-49.389 302.124,-54.9745 70.255,-5.7457 125.782,-3.8704 230.641,11.5441 148.644,22.1081 202.022,25.6686 261.837,5.671 77.196,-26.1038 108.911,-74.5367 85.348,-136.4663 -24.016,-64.0583 -86.951,-101.2644 -258.682,-138.7117 -103.147,-21.8569 -174.131,-47.4996 -212.105,-79.4898 -37.837,-31.0176 -58.099,-73.6307 -83.707,-166.6579 -19.334,-70.3689 -28.646,-89.1355 -56.131,-112.3952 -37.704,-31.9077 -78.617,-37.9188 -125.525,-18.9115 -64.313,26.1679 -96.25,71.1291 -95.759,128.5733 0.492,57.4443 33.417,127.3715 98.786,204.8315 48.572,58.436 37.231,75.5327 -21.453,41.2367 -56.808,-32.0751 -116.859,-49.0017 -276.945,-70.0075 -101.541,-13.4704 -164.279,-22.9094 -212.407,-36.1472 -47.354,-13.025 -77.367,-29.0478 -109.614,-53.4792 -0.459,-0.3445 -27.12,-20.2714 -27.58,-20.6147 0.02,-0.026 26.611,-27.6502 26.635,-27.6758 69.735,-71.2558 86.061,-177.5329 40.298,-255.101 -30.405,-52.9138 -59.286,-72.4352 -166.301,-114.5797 -62.807,-24.9695 -95.368,-39.2327 -112.325,-62.7734 -16.914,-23.482 -18.095,-56.1583 -17.914,-116.5596 0.341,-113.5544 -12.833,-140.3364 -65.899,-139.0575 -43.745,1.0543 -79.833,30.434 -126.933,107.5668 -46.365,76.7671 -80.887,101.9952 -145.364,104.5584 -32.678,1.2991 -75.4718,-16.7127 -75.4071,-31.5214 0.014,-3.288 18.4691,-22.1059 41.0071,-41.7131 115.952,-100.7643 135.486,-245.2942 49.523,-354.3336 -24.326,-30.7818 -58.855,-55.7785 -134.0339,-97.9036 -112.7346,-63.1688 -143.0931,-91.4891 -152.9696,-141.7336 -6.8798,-39.3928 -37.2191,-72.177 -64.6861,-71.785 -24.4237,0.3486 -61.3619,46.6446 -61.567,77.8118 -0.2053,31.1982 -26.6825,33.2483 -41.7518,3.8502 -18.0727,-36.3643 -2.5768,-69.3512 48.503,-101.0101 55.1771,-35.5859 75.6953,-62.7164 75.9525,-101.8889 0.3781,-57.6067 -59.2966,-103.8337 -132.4888,-102.5699 -53.8868,1.1331 -101.7964,22.9797 -124.4417,58.7627 -20.583,31.8992 -28.7151,34.3488 -47.9054,17.464 -7.0659,-6.1349 -16.1721,-11.4808 -19.2203,-11.4537 -4.0656,0.036 -32.786,33.6043 -63.6078,74.533 -0.2721,0.3704 -14.0094,19.0706 -27.7491,37.8536 -13.7397,18.783 -27.4817,37.6526 -27.7538,38.0264 -0.01,1e-4 -42.6497,-4.0764 -42.6603,-4.0775 -35.5463,-3.4018 -43.6907,-1.7142 -43.7769,8.5388 -0.1657,19.7135 -29.9907,61.3031 -65.8173,90.6596 -98.5293,84.1096 -255.7275,91.845 -365.9063,16.2635 -70.6187,-47.9126 -96.4803,-99.5301 -104.5,-205.9126 -8.1317,-94.2181 -21.0338,-121.885 -65.4622,-137.4824 -30.3075,-10.131 -71.9357,-2.6685 -81.2688,15.8113 -4.1594,8.0613 -22.9721,61.7187 -41.8792,120.0749 -44.2403,137.3284 -85.2423,206.0456 -165.2106,272.872 -45.1328,38.1281 -78.8894,61.3366 -139.5537,83.6689 -60.9276,22.4292 -147.3382,43.4541 -298.9953,78.4429 -128.8103,29.4968 -240.8381,70.927 -346.5728,129.6248 -45.8012,25.1987 -88.5034,46.088 -93.5599,46.2434 -18.2102,0.5595 -32.9269,-36.3611 -27.5211,-66.4516 3.2394,-16.8763 15.6619,-42.6297 27.9703,-56.9663 36.8794,-45.5393 73.505,-56.8166 216.187,-67.6311 96.1782,-6.9536 138.8074,-14.183 167.2855,-26.941 48.8679,-22.7445 76.6823,-66.0542 69.1101,-109.6736 -7.5528,-46.211 -32.9261,-83.0765 -88.6335,-118.9183 -55.669,-35.817 -141.7872,-70.6649 -270.534,-112.4526 -127.7328,-41.8048 -159.9815,-46.249 -185.5027,-24.9452 -12.6214,10.5358 -114.8965,142.0354 -217.4746,281.4312 -52.0262,70.6996 -101.0925,139.1699 -141.3002,196.9643 -39.2717,56.449 -66.9789,98.2826 -71.6219,108.2094 -18.591,38.0048 -18.1882,84.1944 -0.2631,105.6228 7.9518,9.8135 14.8852,20.5892 14.8422,24.2431 -0.065,5.4809 -35.3816,28.0753 -81.4346,54.1766 -45.9232,26.0276 -102.9695,55.7754 -145.8767,74.8236 -0.827,0.3692 -78.1505,34.9207 -78.9771,35.2903 -0.1462,-0.1015 -53.8051,-37.2724 -53.9513,-37.3734 -0.1383,-0.096 -52.798,-36.204 -52.9363,-36.2986 -0.9209,1.2224 -21.6756,28.7759 -42.4237,56.5523 -20.748,27.7764 -41.4892,55.7802 -42.4096,57.0231 -46.9949,62.9943 -91.816,115.5904 -100.868,115.6814 -27.1418,0.2729 -69.8329,-52.362 -75.4126,-91.0323 0.1255,1.0036 -4.7379,-37.786 -4.6126,-36.789 -0.4553,0.4257 -20.0397,18.7341 -39.6185,37.1203 -19.5787,18.3862 -39.1518,36.8505 -39.6069,37.2798 -97.755,90.3314 -181.9331,133.2399 -265.5118,132.6703 -87.9883,-0.5997 -124.4593,-23.0085 -235.2607,-133.5278 -101.5038,-102.4656 -143.5343,-126.3245 -205.0032,-127.2375 -47.0341,-0.6987 -71.2471,11.6019 -90.5924,44.2367 -33.6961,58.1742 -13.0231,99.4462 81.3793,163.4724 99.5227,67.0952 120.0189,106.667 85.4841,163.8443 -35.537,59.0926 -9.0903,104.4197 78.8697,132.0241 50.4903,15.3525 62.1767,42.3379 15.6465,41.1541 -41.0203,-1.0437 -93.5281,37.2358 -118.9622,89.307 -14.7736,29.1429 -23.4171,75.1317 -25.0121,116.0238 -1.5915,40.8001 3.875,76.2205 17.336,82.1661 28.0878,13.0948 85.1143,-28.5058 151.0971,-109.6766 61.6028,-75.5733 109.8901,-114.1738 154.3869,-118.1975 44.5474,-4.0282 86.1082,26.456 134.5715,91.9626 45.7491,62.1233 60.3961,75.281 84.633,75.442 22.1094,0.1468 33.1764,-8.4459 51.5534,-39.3716 35.6374,-63.7592 71.2729,-97.1606 107.4334,-104.5602 64.1596,-12.6669 144.6833,33.3698 216.9797,130.6047 59.8401,79.8105 99.4672,109.8365 148.9681,113.0441 69.1784,5.3632 82.43,48.7978 1.6056,47.2041 -80.5181,-3.5268 -142.5343,69.9853 -133.1954,159.8241 8.4661,77.619 -21.9858,101.5739 -85.0181,65.5698 -46.041,-27.0345 -59.7651,-71.5069 -58.8467,-180.8057 0.984,-117.1059 -13.7616,-153.708 -63.8752,-168.6301 -63.8446,-18.0191 -199.5242,34.3808 -263.9582,102.6323 -44.2432,47.61 -19.4497,132.152 58.6153,194.835 49.3291,39.2993 135.3193,90.3668 227.2556,136.9749 92.3863,46.8362 189.539,88.5533 263.2834,111.0713 107.8291,32.2678 219.6626,38.2818 313.0812,22.4531 93.0393,-15.7644 166.545,-53.0709 195.7252,-105.4993 25.6372,-47.0318 8.7427,-89.4267 -36.6256,-94.9443 -53.9888,-5.2799 -45.6191,-37.461 5.3591,-39.121 16.4696,-0.037 64.5987,3.0293 128.6368,7.323 469.4153,31.4738 -246.4566,-16.5713 222.9587,14.9025 156.6245,10.2076 317.2891,19.5301 340.2076,23.6207 64.8859,10.8209 123.3872,40.9796 228.5551,114.8159 108.2983,76.9937 168.9563,94.7005 235.3541,70.3457 24.4357,-9.9094 56.1697,-27.6001 70.452,-39.5522 32.7916,-26.7967 58.4811,-83.8074 50.5705,-110.3393 -9.9083,-35.2062 17.5238,-40.7819 44.8469,-9.8473 60.6306,69.8805 140.9112,95.8627 319.3179,102.248 127.2553,3.79 179.7208,9.845 328.4649,40.1154 179.6717,36.4339 314.705,21.5754 531.9843,-46.9228 z M 6414.6147,5190.123 c -7.6852,-46.7202 11.9353,-104.2753 51.573,-152.5875 0.1321,-0.1623 36.4819,-44.6338 36.614,-44.7948 -0.045,-0.042 -30.9002,-28.9544 -30.9453,-28.9965 -16.8522,-15.9805 -48.9564,-52.7109 -70.7113,-81.3347 -79.1601,-105.0411 -172.0129,-140.7643 -218.3493,-87.1699 -11.1875,12.7344 -25.3919,32.8623 -31.5535,45.7124 -11.2401,21.3455 -9.2476,22.5222 38.0171,17.1235 61.2958,-6.4778 103.4456,11.3237 133.1705,55.3966 9.42,14.5337 14.8554,25.9031 17.5829,44.2837 2.7319,18.4094 2.7589,43.8293 1.3875,87.0942 -4.0837,123.9215 13.6913,171.3898 64.9357,173.9909 9.042,0.9986 12.139,-8.244 8.2787,-28.7179 z m -369.5486,-887.5018 c 34.3579,-16.3479 87.9375,-57.7007 143.856,-111.9392 73.1232,-69.4128 90.3731,-81.4517 95.2396,-67.4632 3.9122,9.3139 10.8374,19.5818 16.8255,23.2825 5.9906,3.7022 10.8364,19.6295 11.6511,36.6495 0.825,16.0675 10.6374,37.8439 21.5837,48.2303 19.2126,19.21 19.59,17.3921 104.688,-96.7804 46.9899,-62.5765 91.8929,-113.8916 99.944,-114.0237 7.046,-0.1157 35.0323,16.9206 61.986,36.8389 -0.1767,-0.1314 50.098,37.3448 49.9211,37.2128 -2.1155,1.0151 105.4459,-50.512 103.3292,-49.4999 143.8888,-68.8054 152.0829,-75.3265 138.4075,-112.2645 -5.8606,-16.2325 -7.5748,-40.6218 -3.3812,-54.2265 6.3137,-24.3603 6.3781,-24.5511 -32.3789,9.7617 -55.0632,49.1258 -117.7534,71.6834 -230.7374,84.7488 -107.8235,12.0447 -130.0315,9.4664 -197.0173,-21.4281 -28.0109,-12.8028 -44.2884,-18.6953 -71.1151,-14.3796 -26.8642,4.3217 -64.1764,18.8415 -134.4009,46.8912 -99.8807,40.137 -101.0538,41.8952 -131.7122,93.724 -59.87,104.6227 -153.6174,121.7003 -355.9497,63.3126 -60.9668,-17.2019 -110.9086,-31.528 -110.9188,-30.6087 -0.01,0.9192 41.6092,42.6504 92.1675,94.821 51.4773,53.0448 108.2705,101.7447 131.1566,112.5017 53.0555,24.6003 125.0515,18.324 196.8557,-15.3612 z m -52.2804,-175.2278 c 34.3435,-14.0068 48.4557,-28.0086 73.124,-72.4168 -3.9404,6.9807 11.442,-20.205 15.3824,-27.1857 3.9547,-6.9753 19.3399,-34.0583 15.3852,-27.083 3.078,-1.2557 105.9571,-43.2849 109.0369,-44.5446 140.3377,-56.6956 185.8085,-62.8459 249.7397,-30.2772 44.9464,23.7949 51.0582,24.7398 138.6796,17.722 189.7113,-15.2257 250.2885,-54.8251 301.5453,-188.3981 18.6386,-46.2395 37.2847,-71.5873 93.3331,-124.1219 58.7214,-55.7821 82.3152,-88.1396 142.6941,-189.8328 83.2305,-142.7507 145.2819,-229.5736 204.1075,-279.1384 59.17,-49.8551 116.5174,-63.4707 192.1289,-58.4319 28.2503,2.0474 52.5103,0.8718 52.5438,-1.5952 0.045,-3.2894 -8.6349,-33.5802 -19.2825,-67.0373 -31.0067,-94.6319 -97.2123,-197.3387 -198.4473,-307.803 -80.3684,-88.6938 -126.0541,-149.3216 -145.0694,-206.5209 -19.023,-57.2226 -11.3672,-110.9841 14.9923,-186.2433 47.4969,-137.3412 34.3703,-201.041 -52.6275,-238.6326 -44.9846,-20.0345 -70.6839,-34.3937 -86.8124,-56.0883 -16.1252,-21.6903 -22.717,-50.7457 -29.4534,-100.4435 -9.9604,-70.8028 -29.4112,-108.1778 -89.733,-174.2067 -67.8224,-72.3907 -100.0394,-118.506 -145.3936,-210.0041 -23.1793,-46.6642 -57.7792,-104.6695 -75.3211,-126.8845 -60.3683,-76.7109 -184.8092,-108.5531 -247.1646,-61.5457 -14.1952,10.6864 -47.2288,59.249 -72.0662,105.7811 -32.0727,60.4544 -68.169,108.0366 -121.2327,162.0772 -144.0775,146.494 -192.9042,243.0283 -202.4972,393.7124 -3.2788,45.277 -4.4812,71.4781 -0.8255,100.1968 3.6451,28.6345 12.1706,59.9597 28.3089,114.4801 23.7277,81.4443 35.377,135.471 34.1966,183.568 -1.1799,48.0781 -15.1884,90.1827 -42.7389,146.85 -63.4118,131.4628 -76.6344,202.5142 -55.1054,302.0526 11.2007,54.6591 2.9475,67.0396 -34.9908,53.7806 -40.9414,-13.9659 -92.3937,0.8337 -139.1577,39.558 -39.6816,33.6561 -41.6684,34.4771 -94.8069,30.7261 -28.8937,-1.3749 -105.2592,-17.1642 -167.9767,-34.5685 -174.4826,-47.2637 -226.2228,-37.488 -331.6182,56.9337 -114.7589,102.8474 -172.5708,223.309 -175.6096,372.7916 -1.5099,74.0118 6.7437,131.7073 32.4912,191.5014 25.909,60.1695 68.8468,121.3014 137.5471,206.0871 43.792,52.8541 91.2648,121.1087 107.3102,152.9661 10.2969,18.6642 26.9598,50.006 37.259,68.9613 3.9234,7.2211 49.7853,24.8804 101.7074,39.9638 182.6815,51.5606 275.1126,77.4949 332.3592,86.8485 56.8177,9.2836 77.2631,1.8203 114.0582,-13.5544 z M 7631.358,3713.1506 c -12.5396,5.792 36.7899,-16.937 49.3295,-22.7291 12.5513,-5.7696 61.8877,-28.3948 49.3364,-22.6252 -0.1858,0.015 -81.8293,5.7714 -82.0151,5.7845 -118.4418,9.397 -176.4486,42.1608 -177.1461,101.2303 -0.097,8.2318 -0.2911,24.7322 -0.2911,24.7322 -0.2942,0.1901 31.8735,-20.5572 31.5792,-20.3678 17.5454,-11.2383 75.0726,-40.8265 129.2072,-66.0249 z m -654.5243,3.1362 c 45.7956,-62.1819 51.7575,-75.0997 20.8101,-50.4906 -25.5129,20.7213 -56.2364,63.4738 -66.7333,93.9342 -10.6345,29.9903 -3.1316,22.5888 45.9232,-43.4436 z M 0,0 Z m 4547.7312,6314.9402 c -46.6888,-24.9975 -80.0575,-40.807 -121.3031,-54.7703 -41.7133,-14.1217 -89.0075,-25.5968 -165.8392,-43.4191 -98.6698,-23.0342 -153.6471,-38.8176 -188.4257,-61.4257 -35.1109,-22.8242 -50.8035,-53.095 -72.4942,-106.5852 -34.355,-84.3474 -66.1912,-97.6707 -176.8663,-84.4166 -110.826,13.2721 -173.825,-6.5896 -245.9564,-70.4844 -50.0013,-45.4096 -114.7638,-145.7206 -143.0303,-219.1035 -14.8871,-40.0026 -76.8741,-100.3028 -138.2057,-137.2096 -26.777,-15.7795 -21.5939,-57.9988 9.9344,-88.7974 35.4295,-34.6094 109.9144,-37.4324 198.7137,-9.7172 78.1711,25.5541 132.4325,18.4606 154.3593,-16.2775 3.9872,-6.3168 13.9115,-35.2706 26.7678,-76.1907 12.6481,-40.258 28.7604,-94.1277 44.0759,-147.3704 31.0637,-107.2913 50.275,-167.1713 65.694,-203.068 15.8142,-36.8169 29.3925,-53.032 51.2387,-73.4715 65.9733,-62.6951 133.9742,-48.61 246.9074,59.2267 58.6313,55.8277 98.0927,90.5398 152.7448,123.7379 54.1814,32.9123 123.1753,64.1598 238.5795,112.1681 143.0014,60.5309 249.9006,121.6709 287.6098,168.3732 14.8337,18.1211 24.6268,47.5994 28.4149,84.1087 -0.7208,-7.2644 2.1139,21.4064 2.8348,28.6707 0.7155,7.259 3.5509,36.1094 2.8354,28.8504 -0.1146,-0.027 58.7773,13.5912 58.6627,13.5649 104.5447,21.9019 131.9919,68.6466 107.5311,194.3844 -12.2916,66.9014 -18.4432,104.5652 -18.1905,129.7573 0.2527,25.1922 6.9115,38.0888 20.2609,57.3081 12.8445,18.4925 43.608,44.2521 67.4449,55.914 23.8502,11.6685 46.6732,28.5324 50.6219,36.9797 7.8932,15.5274 9.7413,46.7286 6.9758,78.7695 -2.7596,31.9731 -10.1366,64.8363 -20.6674,82.5604 -26.1715,43.4564 -59.8324,41.5714 -131.333,-11.9871 -74.0848,-56.3596 -94.5928,-47.0306 -137.4957,67.8997 -40.3417,108.0692 -77.8694,154.3859 -121.7039,146.9249 -18.0819,-3.9447 -80.0679,-32.7653 -140.6963,-64.9044 z m 193.627,-22.8049 c 10.91,-18.3606 29.1117,-61.6943 40.0855,-93.6236 39.8984,-122.5665 98.3369,-146.4809 179.3188,-80.386 50.6271,41.1518 85.3454,44.6383 99.5027,8.7391 19.1577,-46.3432 5.3487,-86.7121 -37.3417,-108.4504 -53.6351,-26.872 -87.2814,-70.8526 -100.9522,-126.192 -9.7124,-40.267 -7.723,-62.648 11.6314,-141.317 10.1738,-43.6566 15.5241,-66.9502 16.357,-83.5029 0.832,-16.537 -2.85,-26.2878 -10.7356,-42.013 -13.7993,-28.7756 -22.7252,-33.1844 -73.4837,-38.5297 -74.626,-7.8587 -93.4208,-28.027 -99.9942,-103.5503 -4.6989,-49.8036 -10.63,-63.5257 -38.3432,-89.0522 -47.7792,-43.3272 -123.7171,-82.806 -294.5758,-155.7327 -176.8179,-75.9606 -253.436,-126.0153 -346.6614,-216.1986 -107.1521,-103.1336 -150.9906,-118.3276 -203.134,-80.8101 -21.3436,16.0292 -36.4028,33.3681 -53.4744,71.8416 -16.7876,37.8333 -36.7641,99.2554 -66.4612,203.9428 -30.9416,110.0169 -47.5709,170.5108 -63.1636,208.3938 -15.2231,36.9854 -28.0114,48.191 -49.3545,59.5462 -26.5825,14.9437 -50.6417,14.0678 -145.3887,-5.6649 -89.1006,-18.5567 -121.4403,-21.0379 -147.2837,-9.9093 -45.4354,17.4628 -47.4923,31.3148 -7.9521,58.2247 27.7053,18.2497 58.948,46.9581 83.4307,74.7413 24.43,27.7234 41.9418,54.3691 41.9291,67.5341 -0.018,18.8073 17.2388,54.189 41.2832,90.8047 23.9862,36.5273 54.9343,74.5003 82.0188,96.8547 58.4128,49.7682 131.1311,69.8081 212.4058,57.3256 110.6009,-16.9221 178.2003,15.1238 217.3897,110.5547 19.7139,48.0056 32.9579,74.453 66.7108,94.706 33.3558,20.0146 88.2452,34.565 189.3408,56.9554 76.8561,17.5449 125.6336,29.085 166.3748,42.1467 40.2059,12.8902 70.2378,26.5939 106.9668,46.9959 121.8287,66.3851 156.5794,70.5067 183.5541,25.6254 z M 0,0 Z" /><path
         style="font-variation-settings:normal;opacity:1;vector-effect:none;fill:#000000;fill-opacity:1;stroke:#000000;stroke-width:1.38514;stroke-linecap:butt;stroke-linejoin:miter;stroke-miterlimit:4;stroke-dasharray:none;stroke-dashoffset:0;stroke-opacity:1;-inkscape-stroke:none"
         d="m 334.02717,353.01795 c -0.25557,-0.12922 -1.07377,-1.94375 -1.81902,-4.05571 -1.75085,-4.96176 -3.34221,-7.65507 -5.83352,-9.75599 -2.68377,-2.26322 -4.63525,-3.05124 -11.90811,-4.85593 -7.29236,-1.80954 -10.37916,-2.86464 -14.16379,-4.80939 -3.96859,-2.03929 -4.22123,-2.13551 -4.77764,-1.47445 -0.6014,0.71453 -0.56739,1.79718 -0.0881,2.83024 0.4799,1.03442 1.40464,2.01844 2.58809,2.55833 0.73578,0.33567 2.6802,0.68655 4.82073,0.87177 4.66481,0.40362 6.26025,0.81569 7.56172,1.93448 1.93583,1.66414 1.25072,4.32861 -1.60689,6.35271 -2.34589,1.66162 -12.50592,5.36736 -14.59656,5.32942 -0.38132,-0.007 -0.90843,-0.40081 -2.15739,-1.88251 -1.18451,-1.40522 -3.29448,-4.1343 -6.51775,-8.52706 -3.89227,-5.3045 -5.95612,-8.28406 -6.81657,-9.95244 -0.89176,-1.7291 -0.6678,-2.32589 -0.13769,-3.3427 0.53056,-1.0177 0.54475,-1.24939 0.1,-1.52483 -2.14052,-1.32553 -5.05957,-2.91639 -7.45563,-4.05523 -0.0359,-0.017 -2.8019,-1.33347 -2.83778,-1.35057 -0.003,0.003 -1.40787,1.00212 -1.41136,1.0046 -0.77694,0.55214 -1.59566,1.09715 -1.82312,1.21539 -0.24314,0.1264 -1.35587,-1.02629 -2.72594,-2.85781 -3.05295,-4.08118 -3.81436,-4.8174 -4.82917,-4.30386 -0.82039,0.41516 -1.85809,2.08239 -1.84826,2.9619 0.009,0.83209 -0.47303,0.64706 -1.86974,-0.7256 -1.69707,-1.66786 -5.42779,-4.18008 -6.98781,-4.68218 -1.8182,-0.58519 -5.05348,-0.47238 -6.52385,0.21956 -0.68894,0.32422 -2.85511,2.10298 -4.79094,3.89811 -3.99484,3.70446 -5.40829,4.45133 -7.32834,4.20129 -1.66119,-0.21632 -2.62521,-1.22165 -2.64178,-2.7916 -0.0106,-1.00826 0.26357,-1.44655 1.65177,-2.65321 2.67993,-2.32945 4.07325,-3.61569 4.61277,-4.583 0.54729,-0.98125 0.26022,-1.68089 -0.38005,-2.96492 -0.61276,-1.22883 -0.60489,-1.29034 0.18956,-2.16723 0.44936,-0.49599 1.54815,-1.20737 2.43767,-1.57461 1.92699,-0.79558 2.0882,-1.56756 0.35656,-1.85447 -1.3191,-0.21857 -2.62093,-1.48374 -3.50157,-3.10097 -0.88049,-1.61697 -1.34328,-3.59539 -0.9846,-5.20053 0.41534,-1.85876 1.53655,-1.31584 5.0976,2.3802 2.60251,2.70117 4.26106,4.0648 5.73204,4.21747 1.47332,0.15292 2.78837,-0.90235 4.71908,-3.1314 1.20387,-1.38992 2.45066,-2.54379 2.77188,-2.5459 0.32096,-0.002 1.19001,0.88592 1.93232,1.96247 3.02878,4.39257 6.11081,4.05131 10.91976,-1.34554 2.66575,-2.99166 4.03895,-4.06574 5.2984,-4.0352 0.37704,0.009 1.0065,-0.24189 1.3976,-0.55827 0.61601,-0.49836 0.63659,-0.63229 0.15423,-0.99626 -0.30683,-0.23153 -1.11297,-0.43867 -1.79248,-0.45888 -2.5457,-0.0757 -4.13164,-1.93942 -4.15672,-5.01342 -0.0196,-2.4047 -0.3147,-2.96318 -1.64053,-2.98626 -1.32064,-0.023 -2.59127,0.84288 -3.20272,2.15877 -0.22627,0.48692 -0.51479,2.64024 -0.63958,4.72531 -0.13753,2.29783 -0.32776,3.62731 -0.78071,4.39089 -0.45281,0.76333 -1.17011,0.96178 -2.36045,0.95938 -3.36471,-0.007 -8.26074,-2.93085 -8.27804,-5.03145 -0.0135,-1.63811 0.96178,-3.3314 2.75697,-4.76175 2.08436,-1.66074 5.80364,-3.75199 9.6606,-5.5221 3.87577,-1.77874 7.82775,-3.20445 10.46162,-3.64415 1.40439,-0.23444 3.40539,-0.23301 5.36201,-0.049 1.95354,0.1837 3.84008,0.54743 4.99786,1.01315 1.7153,0.68997 3.6716,2.89309 3.50932,3.93864 -0.0628,0.40462 -0.73635,1.04585 -1.49653,1.42791 -2.7551,1.38466 -1.4044,2.01307 3.1903,1.70709 8.82795,-0.58788 3.26018,-0.21923 12.08814,-0.8071 3.91235,-0.25402 7.21704,-0.4614 8.17931,-0.58038 2.23655,-0.27653 4.90395,-1.52472 8.37918,-3.92458 2.78329,-1.92204 5.16517,-2.89081 6.64799,-2.70712 1.33851,0.16581 2.80044,1.07467 3.8469,2.14892 1.04772,1.07554 1.68009,2.31572 1.36591,3.18463 -0.13175,0.36435 0.0306,0.73686 0.408,0.93777 0.41882,0.22299 1.07836,-0.0831 1.99113,-0.92569 2.34124,-2.16121 4.74409,-2.83019 12.74677,-3.25898 1.71332,-0.0918 5.4816,-0.59542 8.22521,-1.09113 4.15943,-0.75151 5.7887,-0.82708 9.22067,-0.4882 2.55303,0.25208 4.50963,0.58318 7.23608,1.36622 2.8848,0.82853 6.00587,1.96081 11.68084,3.95102 10.09196,3.53926 14.83011,4.60994 18.98194,4.99826 4.2218,0.3954 4.86051,0.10046 5.20481,-2.3431 0.20027,-1.42126 0.38746,-1.75541 0.96465,-1.70403 0.38052,0.0339 3.91014,1.3128 7.78065,2.6942 8.52537,3.04273 15.5541,4.80146 20.55218,5.63498 1.65372,0.27578 2.81261,0.41355 4.27889,0.42698 1.41474,0.013 3.40028,-0.0936 6.44685,-0.37876 3.40052,-0.31833 4.8776,-0.50904 6.18248,-0.56343 1.16384,-0.0485 1.69559,0.055 2.49715,0.27966 2.49686,0.69993 3.57414,1.70122 3.57273,3.38222 -0.002,2.70474 -2.21759,4.24466 -9.706,6.02752 -3.54354,0.84365 -6.38911,2.11661 -7.35704,3.38772 -0.35131,0.46135 -1.19108,2.48869 -1.85808,4.46285 -1.36587,4.04263 -2.22168,4.98717 -4.46797,5.03992 -0.99699,0.0234 -1.67195,-0.24139 -2.87856,-1.14107 3.7e-4,2.8e-4 -0.39381,-0.29363 -0.78805,-0.58903 -0.19728,-0.14782 -0.98545,-0.7399 -0.78817,-0.59208 -0.002,0.29632 0.005,-0.82808 0.007,-1.1244 0.002,-0.29624 0.009,-1.42505 0.007,-1.12881 0.0153,-2.36219 0.66106,-3.81169 2.96974,-6.72338 0.87524,-1.10383 1.25644,-2.38285 0.70943,-2.37315 -0.1279,0.002 -1.27678,0.45932 -2.54779,1.00341 -1.57547,0.67442 -4.33797,1.3532 -8.7686,2.04567 -3.46885,0.54215 -5.67796,0.92306 -7.32198,1.37822 -1.6152,0.44719 -2.56831,0.94023 -3.38175,1.63096 -0.0116,0.01 -1.00263,0.84985 -1.01423,0.85967 0.002,0.002 0.2894,0.39595 0.57726,0.78729 0.28785,0.39134 0.57569,0.7805 0.57733,0.78272 1.98657,2.68686 2.37209,4.84871 1.29493,7.40529 -0.77,1.82758 -2.29088,3.00837 -5.71178,4.41363 -2.06671,0.84896 -3.15326,1.34209 -3.76584,2.15714 -0.61126,0.81329 -0.74365,1.9427 -0.89486,4.0263 -0.2647,3.64729 -0.75669,4.77449 -2.03787,4.74348 -1.19173,-0.0288 -2.59799,-1.18621 -4.02225,-3.35974 -1.74023,-2.65572 -3.06966,-3.65672 -5.07701,-3.73614 -1.77091,-0.0701 -2.9384,0.32178 -2.93549,0.9869 0.001,0.26419 0.61308,1.04626 1.35967,1.73166 2.23279,2.04975 3.31285,4.25602 3.33348,6.82167 0.0152,1.9013 -0.14595,2.44499 -1.20063,4.0817 -1.05639,1.63939 -1.72294,2.19257 -5.01679,4.18707 -3.82162,2.31409 -4.44934,2.9432 -5.65951,5.61297 -0.33895,0.74778 -0.86302,1.42737 -1.16439,1.51103 -0.8256,0.22919 -2.0626,-0.89913 -2.3328,-2.13725 -0.28496,-1.30569 -1.11558,-1.47012 -1.81352,-0.35332 -0.70618,1.13001 -0.20455,2.1254 2.04804,4.00667 1.79384,1.49813 2.00571,1.80153 2.01308,2.91805 0.006,0.91752 -0.23497,1.464 -0.91035,2.06762 -2.13135,1.90494 -4.76778,1.75294 -7.14097,-0.45411 -1.28015,-1.19053 -1.41036,-1.24658 -2.02964,-0.82266 -0.61951,0.42407 -0.78068,0.30688 -2.65557,-2.15156 -0.0102,-0.0133 -0.50376,-0.66051 -0.99743,-1.31069 -0.49367,-0.65018 -0.98742,-1.30347 -0.99758,-1.31691 0.002,-1.7e-4 -1.31968,0.14329 -1.31804,0.14311 -1.23284,0.13403 -1.34824,0.0804 -1.78545,-0.84943 -0.74675,-1.58805 -2.87392,-3.32965 -5.02835,-4.10653 -2.54945,-0.91933 -5.36457,-0.83211 -7.73093,0.025 -2.36433,0.85633 -4.26845,2.4781 -4.98884,4.58444 -0.2762,0.80755 -0.59871,2.39558 -0.7162,3.52283 -0.11763,1.12862 -0.37959,2.47454 -0.58223,2.99453 -0.55634,1.42761 -2.29746,2.19318 -3.55325,1.55821 -10e-6,0 -4e-5,0 -4e-5,0 z"
         id="path68"
         transform="matrix(29.254541,0,0,-29.254541,-1204.6358,13422.39)" /><path
         style="font-variation-settings:normal;opacity:1;vector-effect:none;fill:#000000;fill-opacity:1;stroke:#000000;stroke-width:1.38514;stroke-linecap:butt;stroke-linejoin:miter;stroke-miterlimit:4;stroke-dasharray:none;stroke-dashoffset:0;stroke-opacity:1;-inkscape-stroke:none"
         d="m 263.72328,411.7772 c -0.453,-0.4337 -1.64223,-2.12595 -2.62985,-3.72516 -1.00278,-1.62374 -2.98014,-4.19641 -4.44853,-5.79517 -2.35842,-2.56785 -3.83797,-4.44906 -4.78285,-6.34683 -0.94257,-1.89315 -1.34281,-3.78743 -1.53035,-6.3233 -0.10609,-1.43441 -0.13444,-2.36671 -0.0187,-3.39442 0.11545,-1.02536 0.37552,-2.15094 0.84538,-3.94368 0.75062,-2.86386 1.10505,-4.69488 1.01551,-6.42481 -0.0896,-1.72993 -0.62306,-3.35575 -1.64658,-5.77084 -0.80778,-1.90606 -1.21379,-2.86745 -1.41761,-3.84183 -0.20347,-0.9727 -0.204,-1.95426 -0.1983,-3.8885 0.001,-0.44662 0.004,-1.50405 0.006,-1.95066 0.002,-0.51252 0.005,-1.44092 0.006,-1.95343 -0.009,4.4e-4 -1.92228,0.095 -1.93122,0.0954 -1.85695,0.0907 -2.00031,0.0424 -3.74011,-1.21485 -1.68908,-1.22061 -1.91329,-1.29677 -3.38752,-1.17101 -0.85925,0.0733 -3.52324,0.58996 -5.87879,1.12965 -6.52032,1.4939 -7.73908,1.2411 -11.28546,-1.93422 -2.99112,-2.67817 -4.92059,-6.13265 -5.64346,-9.73954 -0.72295,-3.60732 -0.24574,-7.40594 1.57496,-10.76169 0.43466,-0.80115 2.18221,-3.25773 3.80778,-5.39563 1.66713,-2.19255 3.43018,-4.76901 4.02643,-5.84171 0.62647,-1.12708 1.43799,-2.06995 2.04267,-2.35694 0.5529,-0.26242 3.5503,-1.14413 6.65921,-2.00062 3.12116,-0.85987 6.3442,-1.69046 7.40247,-1.86453 0.95091,-0.15639 1.82933,-0.0201 3.03177,0.47078 1.40814,0.57495 1.86142,1.00751 2.69643,2.53775 0.98979,1.8139 1.04742,1.84661 4.74085,3.28906 4.68225,1.82864 6.45934,2.04631 9.02895,1.08471 1.68314,-0.62986 2.3194,-0.69074 5.10448,-0.46284 5.56612,0.45544 7.66926,1.90721 9.57806,6.3558 0.35521,0.82784 1.7856,2.73551 3.19316,4.25092 1.64871,1.77507 3.72988,4.64188 5.87793,8.03675 2.6271,4.15198 4.46617,6.61664 6.2086,8.04165 1.7521,1.43292 3.44722,1.85461 5.8365,1.89046 0.58694,0.009 2.26341,0.0333 2.26341,0.0333 0.003,-0.008 -0.6825,2.02914 -0.67984,2.02123 -0.98153,2.91544 -3.1523,6.34394 -6.3442,10.04187 -3.02134,3.50035 -4.62769,5.53766 -5.28177,7.45867 -0.65458,1.92247 -0.35631,3.7262 0.43319,6.78068 1.00256,3.87874 1.03942,4.27357 0.55616,5.4702 -0.41334,1.02352 -0.96069,1.53283 -2.64163,2.45242 -1.16661,0.63822 -2.35311,1.46033 -2.6391,1.82944 -0.28591,0.369 -0.76445,1.83415 -1.06469,3.27232 -0.32262,1.54541 -0.55629,2.45593 -1.06931,3.39841 -0.51526,0.94659 -1.30007,1.90688 -2.73532,3.59317 -1.21421,1.42659 -3.10552,4.21607 -4.26314,6.31056 -2.45014,4.43307 -3.37985,5.57926 -5.53102,6.48276 -2.10806,0.88537 -4.07796,0.79725 -5.14653,-0.22585 -10e-6,10e-6 -2e-5,3e-5 -2e-5,3e-5 0,0 0,2e-5 0,2e-5 z"
         id="path69"
         transform="matrix(29.254541,0,0,-29.254541,-1204.6358,13422.39)" /><path
         style="font-variation-settings:normal;opacity:1;vector-effect:none;fill:#000000;fill-opacity:1;stroke:#000000;stroke-width:1.38514;stroke-linecap:butt;stroke-linejoin:miter;stroke-miterlimit:4;stroke-dasharray:none;stroke-dashoffset:0;stroke-opacity:1;-inkscape-stroke:none"
         d="m 432.34233,417.89322 c -0.48116,-0.34934 -2.9069,-2.58268 -5.26071,-4.77984 -1.71369,-1.59962 -2.95827,-2.67477 -4.00728,-3.45679 -1.05714,-0.78808 -1.96298,-1.3153 -3.04007,-1.82524 -1.22956,-0.58213 -1.99123,-0.90501 -2.80228,-1.10068 -0.81033,-0.19549 -1.70011,-0.27102 -3.1822,-0.3426 -1.95142,-0.0942 -3.17752,-0.0543 -4.36654,0.33354 -1.18702,0.38719 -2.37462,1.13404 -4.23775,2.48491 -3.07437,2.22906 -5.41388,2.96717 -8.62446,2.65394 -1.1134,-0.10864 -2.17479,-0.32409 -2.35699,-0.4825 -0.18252,-0.15867 -0.41258,-1.18535 -0.51092,-2.26912 -0.10424,-1.14928 -0.72043,-3.1913 -1.47004,-4.86402 -1.30166,-2.90467 -1.99154,-4.94152 -2.10046,-6.69032 -0.10892,-1.74879 0.36298,-3.20585 1.38458,-4.88366 0.71802,-1.17921 1.54601,-2.12323 3.09748,-3.28546 1.53481,-1.14976 3.85491,-2.5653 7.47701,-4.58269 3.35195,-1.86693 5.70143,-3.07349 7.38051,-3.80479 1.70345,-0.74191 2.82419,-1.04537 3.8429,-1.12815 2.47816,-0.20136 3.59464,0.34909 5.85223,2.96876 2.29295,2.6607 2.92024,3.19924 3.83105,3.11476 1.00439,-0.0932 1.35326,-1.73621 0.91336,-4.29401 -0.48004,-2.79118 -1.76774,-5.33398 -3.74266,-7.48652 -1.97573,-2.15342 -4.63545,-3.91288 -7.86245,-5.15382 -4.26213,-1.63899 -4.97225,-2.33717 -3.36122,-3.51492 0.98508,-0.72014 4.13353,-0.66723 6.89915,0.13791 2.83315,0.82481 7.57082,3.2566 11.69521,5.85571 2.05494,1.29499 3.91135,2.60063 5.27886,3.71746 1.35988,1.1106 2.208,2.01205 2.20827,2.45636 6.6e-4,1.04758 -0.95242,0.68689 -3.35051,-1.19148 -1.227,-0.96108 -2.55052,-1.75068 -2.94758,-1.7733 -0.39583,-0.0226 -1.1934,0.22474 -1.77354,0.5498 -0.57879,0.32429 -1.38879,0.71652 -1.79523,0.86915 -1.05001,0.39431 -1.12753,2.01958 -0.21685,4.39771 0.56439,1.47385 1.14355,2.53776 2.47408,4.03355 1.40002,1.57391 3.32968,3.32426 6.94108,6.68373 2.86668,2.6667 4.59882,4.39151 5.62922,5.56533 1.07016,1.2191 1.57937,2.05148 2.19809,3.25255 1.94019,3.76632 2.52305,6.07042 2.52426,9.89583 0.002,5.66242 -0.93195,7.59302 -4.22114,8.61821 -1.06223,0.33109 -2.84266,0.38912 -4.50377,0.25698 -1.6652,-0.13248 -3.23344,-0.45765 -3.89269,-0.93629 0,-1e-5 0,-3e-5 0,-3e-5 0,1e-5 0,3e-5 0,4e-5 z"
         id="path70"
         transform="matrix(29.254541,0,0,-29.254541,-1204.6358,13422.39)" /><path
         style="font-variation-settings:normal;opacity:1;vector-effect:none;fill:#000000;fill-opacity:1;stroke:#000000;stroke-width:1.38514;stroke-linecap:butt;stroke-linejoin:miter;stroke-miterlimit:4;stroke-dasharray:none;stroke-dashoffset:0;stroke-opacity:1;-inkscape-stroke:none"
         d="m 384.45946,369.48514 c -4.56512,-0.87472 -8.02511,-4.08446 -8.04836,-7.4806 -0.005,-0.77848 0.15307,-0.94882 1.01627,-1.09126 0.55966,-0.0924 1.58031,-0.29505 2.25585,-0.44781 0.67829,-0.15337 1.32187,-0.21222 1.43008,-0.13135 0.28834,0.2155 -1.9381,1.01987 -2.82691,1.01878 -0.66325,-8.1e-4 -0.7608,0.17236 -0.74594,1.32612 0.0223,1.73193 1.02554,3.31988 2.8922,4.57856 1.89183,1.27565 3.73773,1.73797 6.29105,1.58264 2.89334,-0.17602 3.40196,-0.63019 3.60318,-3.23243 0.0907,-1.17355 0.28058,-2.52587 0.42203,-3.00943 0.20175,-0.6897 0.01,-1.2281 -0.89365,-2.50329 -0.63308,-0.89364 -1.32203,-1.96882 -1.53122,-2.39003 -0.20907,-0.42096 -0.62631,-0.76718 -0.92711,-0.76911 -0.30104,-0.002 -1.55865,0.69039 -2.79491,1.54185 -2.26684,1.56123 -3.03599,1.67349 -1.30735,0.13887 1.24901,-1.10882 4.51792,-2.87002 4.94972,-2.6687 0.18667,0.087 0.45396,0.50363 0.59394,0.92558 0.1401,0.42236 0.93001,1.77997 1.75547,3.01805 -0.009,-0.0138 1.50958,2.26532 1.50037,2.25149 10e-4,-0.002 -0.61799,1.15845 -0.6169,1.1564 -0.4345,0.81514 -0.54155,1.52301 -0.36263,2.39418 0.4379,2.13212 -1.08724,3.5144 -4.24959,3.86318 -0.70797,0.078 -1.79176,0.0459 -2.40559,-0.0717 0,10e-6 0,10e-6 0,10e-6 z"
         id="path71"
         transform="matrix(29.254541,0,0,-29.254541,-1204.6358,13422.39)" /><path
         style="font-variation-settings:normal;opacity:1;vector-effect:none;fill:#000000;fill-opacity:1;stroke:#000000;stroke-width:1.38514;stroke-linecap:butt;stroke-linejoin:miter;stroke-miterlimit:4;stroke-dasharray:none;stroke-dashoffset:0;stroke-opacity:1;-inkscape-stroke:none"
         d="m 372.46456,371.20383 c -1.80382,-0.97696 -3.98221,-3.10182 -5.72217,-5.58195 -0.84232,-1.20063 -2.04087,-2.30789 -3.64742,-3.37336 -1.31688,-0.87335 -2.6474,-1.95716 -2.96004,-2.40921 -10e-4,-0.002 -0.5659,-0.81874 -0.56695,-0.82025 0.32212,0.049 1.24204,0.18892 1.24204,0.18892 0.92422,0.14044 1.7713,0.43116 3.02057,1.14229 1.24899,0.71096 2.89772,1.84092 5.42299,3.65372 3.60582,2.58847 4.81796,3.65039 5.74256,5.05201 0.9652,1.46316 1.09757,1.87999 0.75694,2.37025 -0.56658,0.81546 -1.48657,0.75353 -3.28852,-0.22242 z"
         id="path72"
         transform="matrix(29.254541,0,0,-29.254541,-1204.6358,13422.39)" /><path
         style="font-variation-settings:normal;opacity:1;vector-effect:none;fill:#000000;fill-opacity:1;stroke:#000000;stroke-width:1.38514;stroke-linecap:butt;stroke-linejoin:miter;stroke-miterlimit:4;stroke-dasharray:none;stroke-dashoffset:0;stroke-opacity:1;-inkscape-stroke:none"
         d="m 401.59524,332.0025 c -0.76735,-0.71677 -0.63111,-2.54948 0.26338,-3.46269 0.42617,-0.43509 1.59962,-1.02784 2.60579,-1.31678 3.88636,-1.116 5.97524,-1.88766 6.78086,-2.46886 0.002,-0.002 0.83913,-0.60619 0.84164,-0.60801 4.7e-4,0.28804 0.002,1.12086 0.002,1.12086 0.004,2.46421 -2.85745,5.04783 -7.27744,6.57194 -2.22124,0.76593 -2.55536,0.7807 -3.21607,0.16354 z"
         id="path73"
         transform="matrix(29.254541,0,0,-29.254541,-1204.6358,13422.39)" /><path
         style="font-variation-settings:normal;opacity:1;vector-effect:none;fill:#000000;fill-opacity:1;stroke:#000000;stroke-width:0.436223;stroke-linecap:butt;stroke-linejoin:miter;stroke-miterlimit:4;stroke-dasharray:none;stroke-dashoffset:0;stroke-opacity:1;-inkscape-stroke:none"
         d="m 412.75148,321.54345 c 0.14933,-0.3788 0.40185,-1.61486 0.61785,-2.89374 0.2158,-1.2777 0.39448,-2.5961 0.39473,-3.10423 0,2.3e-4 2.5e-4,-0.60772 2.5e-4,-0.60794 7.1e-4,5.4e-4 0.44175,0.34302 0.44246,0.34358 0.65985,0.51173 1.48615,0.8961 2.52859,1.17513 2.12443,0.56863 3.00321,1.6555 2.1094,2.63104 -0.43665,0.47659 -1.26516,0.79822 -2.67801,1.03324 -1.34701,0.22406 -1.82718,0.41162 -2.75529,1.0797 -0.4587,0.33018 -0.70529,0.458 -0.66004,0.34322 2e-5,0 6e-5,0 6e-5,0 z"
         id="path74"
         transform="matrix(29.254541,0,0,-29.254541,-1204.6358,13422.39)" /><path
         style="font-variation-settings:normal;opacity:1;vector-effect:none;fill:#000000;fill-opacity:1;stroke:#000000;stroke-width:0.436223;stroke-linecap:butt;stroke-linejoin:miter;stroke-miterlimit:4;stroke-dasharray:none;stroke-dashoffset:0;stroke-opacity:1;-inkscape-stroke:none"
         d="m 413.83139,312.87058 c -0.0485,-0.19595 -0.12673,-1.17168 -0.19287,-2.25636 -0.0661,-1.08419 -0.12006,-2.27749 -0.12,-2.88129 -1.2e-4,-1.0134 0.0288,-1.20082 0.19391,-1.25069 0.48488,-0.14651 1.42051,1.37403 1.75729,2.83754 0.2563,1.11374 0.29328,2.61906 0.0737,2.94957 -0.13415,0.20194 -1.33571,0.81846 -1.58935,0.81606 -0.0383,-3.6e-4 -0.0936,-0.097 -0.12273,-0.21483 10e-6,0 10e-6,0 10e-6,0 z"
         id="path75"
         transform="matrix(29.254541,0,0,-29.254541,-1204.6358,13422.39)" /><path
         style="font-variation-settings:normal;opacity:1;vector-effect:none;fill:#000000;fill-opacity:1;stroke:#000000;stroke-width:0.740426;stroke-linecap:butt;stroke-linejoin:miter;stroke-miterlimit:4;stroke-dasharray:none;stroke-dashoffset:0;stroke-opacity:1;-inkscape-stroke:none"
         d="m 295.10803,399.91178 c -0.76666,-0.69233 -0.82133,-0.94057 -1.02819,-4.44229 -0.0782,-1.32342 -0.264,-3.38772 -0.41459,-4.6104 -0.21279,-1.72761 -0.22323,-2.35665 -0.0457,-2.87058 0.26761,-0.77601 1.18037,-1.75631 2.24643,-2.41551 0.41769,-0.25829 1.4135,-1.15277 2.20923,-1.98165 1.40063,-1.45902 2.74863,-2.45454 3.30875,-2.4544 0.56308,1.5e-4 0.7107,0.84216 0.6507,3.72315 -0.0669,3.21269 -0.48521,5.79343 -1.47246,9.13519 -1.06742,3.61309 -2.07127,5.45193 -3.43678,6.18285 -0.8709,0.46617 -1.26362,0.41409 -2.01711,-0.26636 0,0 -2.6e-4,0 -2.6e-4,0 z"
         id="path76"
         transform="matrix(29.254541,0,0,-29.254541,-1204.6358,13422.39)" /><path
         style="font-variation-settings:normal;opacity:1;vector-effect:none;fill:#000000;fill-opacity:1;stroke:#000000;stroke-width:0.740426;stroke-linecap:butt;stroke-linejoin:miter;stroke-miterlimit:4;stroke-dasharray:none;stroke-dashoffset:0;stroke-opacity:1;-inkscape-stroke:none"
         d="m 138.26034,438.44411 c -3.48401,-1.19951 -6.1854,-5.07883 -7.01764,-9.73456 -0.32192,-1.80088 -0.40914,-4.29783 -0.28653,-7.1817 0.12276,-2.88751 0.45483,-6.14811 0.97202,-9.52016 1.04862,-6.83684 2.79203,-13.77455 5.11264,-19.98091 0.759,-2.02988 1.34896,-3.56939 1.80654,-4.82308 0.45898,-1.25751 0.78141,-2.21367 1.01237,-3.05159 0.45913,-1.66574 0.5356,-2.81098 0.52386,-4.47528 -0.007,-1.04583 -0.025,-1.65784 -0.093,-2.13675 -0.0679,-0.47797 -0.18639,-0.82327 -0.39415,-1.30865 -0.31426,-0.73418 -0.71081,-1.42153 -1.35618,-2.27653 -0.63805,-0.8453 -1.55303,-1.8962 -2.86685,-3.2808 -1.83703,-1.93601 -2.93318,-3.19696 -3.59856,-4.406 -0.65781,-1.1953 -0.86218,-2.29822 -0.87593,-3.77488 -0.0141,-1.5129 0.0526,-1.92569 0.42158,-2.67803 0.71895,-1.46567 1.51409,-2.38994 3.25927,-3.83799 1.62258,-1.34631 2.40127,-2.37015 2.39471,-3.11552 -0.004,-0.4846 -0.5487,-1.48329 -1.00748,-1.84566 -0.493,-0.38937 -1.09415,-0.43081 -2.08753,-0.15492 -2.02895,0.5635 -3.70098,-0.15511 -6.40895,-2.55396 -0.72514,-0.64236 -1.63701,-1.39113 -2.07444,-1.70872 -1.52983,-1.11072 -4.78799,-2.20581 -11.07708,-3.47884 -4.03453,-0.81667 -6.43595,-1.38348 -8.21652,-2.25295 -1.75996,-0.8594 -2.84974,-1.99343 -4.15576,-3.86568 -1.20149,-1.72241 -1.73638,-2.34738 -2.67091,-3.08117 -1.227733,-0.96401 -2.427766,-1.44832 -3.406451,-1.37184 -0.550787,0.043 -0.509719,0.18974 0.302338,1.03137 1.176569,1.21941 1.431599,1.70816 1.559348,2.97628 -0.015,-0.14836 0.04393,0.43454 0.05893,0.5829 0.01506,0.14844 0.0741,0.72821 0.05904,0.57976 -4.09e-4,-2.5e-4 -0.526371,-0.32416 -0.52678,-0.32441 -0.38433,-0.23641 -1.773376,-1.53485 -3.195088,-2.95232 -1.443916,-1.43962 -2.881459,-2.96459 -3.479529,-3.73642 -1.014965,-1.30983 -2.52408,-4.12652 -3.813825,-7.41621 -0.458601,-1.16974 -0.979783,-2.15754 -1.541525,-2.88885 -2.185539,-2.84526 -6.338274,-5.46093 -11.855211,-7.33901 -3.236693,-1.10184 -5.46139,-1.44134 -8.473745,-1.24174 -3.477071,0.23038 -5.644495,1.03731 -11.243575,3.60623 -1.847264,0.84754 -3.750563,1.65236 -5.419251,2.31199 -1.6324,0.64528 -2.930633,1.10749 -3.384317,1.21942 -1.291708,0.31867 -2.651613,0.53384 -3.081407,0.49656 -0.201089,-0.0174 -0.237447,-0.0787 0.08378,-0.35028 0.343216,-0.29018 0.981299,-0.73639 2.238265,-1.64137 2.268694,-1.63339 2.724502,-2.0674 2.522216,-2.19773 -0.134572,-0.0867 -1.195153,-0.31501 -2.352199,-0.51465 -1.045853,-0.18047 -1.580315,-0.27836 -1.918275,-0.41474 -0.340654,-0.13747 -0.497861,-0.31878 -0.803314,-0.68164 -0.269059,-0.31962 -1.003559,-1.17363 -1.325399,-1.54168 -0.807027,-0.92289 -0.904411,-1.55213 -0.301302,-1.84606 0.216246,-0.10538 1.55221,-0.41595 2.948975,-0.69813 2.656667,-0.5367 3.368934,-0.84747 3.751208,-1.5395 0.284873,-0.51571 0.339802,-0.82644 -0.09099,-1.07529 -0.436162,-0.25197 -1.344449,-0.43366 -3.014659,-0.72966 -1.031741,-0.18285 -1.987511,-0.38982 -2.134872,-0.45427 -0.269436,-0.11785 0.944383,-0.69264 2.618837,-1.36572 1.634585,-0.65706 3.852064,-1.46476 5.395255,-1.90456 1.476523,-0.42081 3.806007,-0.7945 6.098003,-1.04307 2.298275,-0.24926 4.623774,-0.37973 6.129695,-0.27409 0.589709,0.0414 2.550492,-0.0865 4.40523,-0.29956 1.698354,-0.1951 4.507362,-0.57512 7.952486,-1.10384 3.497459,-0.53676 7.233964,-1.16166 11.054787,-1.84369 7.457668,-1.33121 14.14853,-2.68527 14.459612,-2.84659 0.206509,-0.10716 0.376079,-0.31209 0.376839,-0.45577 0.002,-0.3975 -0.918909,-0.5714 -3.131077,-0.58958 -1.603551,-0.0132 -3.484321,-0.20324 -4.970006,-0.45864 -1.483819,-0.25509 -2.566872,-0.57487 -2.565148,-0.83553 0.0019,-0.28912 1.683694,-1.65394 2.790191,-2.2731 1.443974,-0.80804 4.919117,-1.41329 8.39059,-1.45295 3.00805,-0.0344 5.94281,-0.26009 8.43334,-0.64603 4.62971,-0.71745 6.55809,0.18005 6.96302,3.00545 0.0916,0.63959 0.31511,1.28265 0.49718,1.44017 0.6865,0.59401 2.68096,0.3621 4.59731,-0.54812 1.48125,-0.70356 2.79024,-1.65259 5.17915,-3.8837 2.28537,-2.1344 3.51525,-3.28479 4.96691,-4.06535 1.43241,-0.77023 3.03414,-1.14684 5.96585,-1.73343 6.01515,-1.20353 10.10037,-1.2994 14.80967,-0.35559 1.8635,0.37347 4.44591,1.2157 6.84912,2.16908 2.39663,0.95078 4.59157,2.00315 5.64328,2.76413 0.16335,0.11819 0.62992,0.45547 0.62992,0.45547 -6.8e-4,7.2e-4 -0.57822,0.61034 -0.5789,0.61105 -0.44817,0.47187 -1.5218,1.27545 -2.6659,2.03609 -1.14376,0.7604 -2.34562,1.46988 -3.04837,1.76861 -1.67342,0.71137 -2.60545,0.73789 -6.19848,0.29043 -1.62885,-0.20284 -3.15392,-0.32434 -3.39754,-0.27937 -0.9102,0.16798 -3.26051,-1.58833 -4.27415,-3.23885 -1.28333,-2.08965 -1.41469,-2.24281 -2.12782,-2.09459 -0.47965,0.0997 -0.82349,0.3444 -1.2565,0.88686 -0.30648,0.38393 -0.46778,0.61251 -0.55805,1.02063 -0.0901,0.40748 -0.10866,0.99273 -0.12882,2.06933 -0.0225,1.20259 -0.0566,1.28876 -0.81652,2.1406 -1.06478,1.19365 -2.01991,1.59703 -4.4236,1.92507 -2.84751,0.38861 -4.48003,0.62773 -5.41741,0.80063 -0.96553,0.1781 -1.32305,0.30677 -1.76132,0.51114 -1.03486,0.48256 -2.61828,2.05293 -3.0784,3.02739 -1.02729,2.17561 0.79526,4.52608 4.05961,5.42609 1.65981,0.45762 2.31082,0.52779 4.11128,0.4458 3.10662,-0.14145 6.03043,-1.4513 8.24744,-3.86568 1.50627,-1.64036 2.35147,-3.0967 3.07223,-5.33092 0.31034,-0.96194 0.70946,-1.90117 0.88414,-2.06251 0.41571,-0.38391 0.99846,-0.3432 2.77836,0.21165 1.88217,0.58674 3.80048,0.83099 5.68801,0.72605 1.14524,-0.0637 1.95038,0.0477 3.30147,0.4589 5.23027,1.59197 10.05499,4.77639 13.59244,8.72145 1.49682,1.66928 2.14567,2.6229 2.14887,3.18133 0.005,0.93501 -2.37893,2.16614 -3.8786,2.02704 -2.1915,-0.20325 -3.87099,-1.28943 -4.41473,-2.90699 -0.18036,-0.53655 -0.34832,-0.99837 -0.37315,-1.02156 -0.14354,-0.13397 -4.09868,0.91996 -5.49627,1.45918 -3.08372,1.18978 -5.67518,2.65901 -5.67309,3.23398 9.2e-4,0.25537 0.26975,0.27369 3.0296,0.28438 2.50825,0.01 3.93962,0.31354 4.92764,1.02158 1.27513,0.9138 1.47432,2.06307 0.58889,3.35291 -0.81631,1.18915 -0.95092,1.19163 -4.14387,0.69045 -3.31568,-0.52045 -4.4346,-0.52676 -5.65223,-0.11922 -0.64529,0.21598 -1.24921,0.58276 -2.12172,1.35695 -0.90072,0.79923 -1.9686,1.91789 -3.6834,3.70854 -5.91631,6.17799 -10.70875,10.74627 -11.92151,12.39581 -1.06113,1.44331 -1.24506,1.99254 -1.13496,3.53017 0.0808,1.12935 0.17051,1.39174 0.69403,2.05914 0.33012,0.42085 0.79729,0.87397 1.03615,1.0051 -7.6e-4,-4.1e-4 0.43581,0.23964 0.43505,0.23923 -0.1133,0.0391 -0.43686,0.15056 -0.43686,0.15056 -0.64083,0.22038 -2.03329,0.10675 -2.77725,-0.21983 -0.8306,-0.36462 -1.48526,-1.07919 -2.69011,-2.95597 -0.53841,-0.83866 -1.35611,-1.95285 -1.81181,-2.46632 -0.94663,-1.06663 -2.6892,-2.14714 -4.06161,-2.50864 -0.8023,-0.21132 -1.10643,-0.21628 -3.60786,-0.0461 -3.01622,0.2052 -3.3897,0.30233 -4.59431,1.09253 -1.07936,0.70804 -1.61485,1.57806 -1.70704,2.76513 -0.12938,1.6661 0.5512,2.99179 1.92681,3.81751 1.30501,0.78336 2.5474,0.85106 5.59065,0.23337 1.86816,-0.37919 3.47829,-0.54683 3.93314,-0.39485 0.15042,0.0503 0.0784,0.19991 -0.22997,0.47226 -0.86479,0.76386 -0.80862,1.76137 0.13567,2.49752 0.23988,0.187 1.08728,0.75217 1.85928,1.24464 1.77376,1.13155 2.16675,1.58542 2.38834,2.69512 0.27352,1.3698 1.19101,2.17911 3.17646,2.8307 0.67762,0.22238 1.19961,0.29957 2.25081,0.33025 1.74297,0.0509 2.8964,-0.23089 5.63106,-1.49047 1.84125,-0.84807 2.65436,-1.19286 2.91566,-1.1879 0.0506,9.6e-4 0.0507,0.31336 -1.2e-4,0.69337 -0.17503,1.31736 0.67318,1.81731 1.605,0.919 0.54117,-0.52172 1.35514,-0.82123 2.19743,-0.80125 0.36614,0.009 1.16294,0.28782 2.31359,0.82228 2.17233,1.00904 3.29254,1.53891 4.52634,2.0238 1.21658,0.47811 2.34173,0.83127 4.43948,1.48838 2.47464,0.77518 4.08192,1.31088 5.15807,1.71094 1.1057,0.41104 1.79284,0.72906 2.57584,1.1435 1.41367,0.74825 2.29007,1.47285 4.23033,3.56985 1.37908,1.49048 2.51565,2.52559 3.91793,3.40926 1.40309,0.88417 3.05005,1.6034 5.45524,2.48561 4.13662,1.51728 6.05367,2.44964 7.46369,3.57775 1.4792,1.18346 1.96957,1.91562 2.09591,3.11743 0.12724,1.21028 -0.36909,1.97831 -2.43602,3.73544 -1.43974,1.22394 -2.25783,1.99627 -2.77619,2.85927 -0.51783,0.86212 -0.73711,1.81562 -0.97655,3.41217 -0.40213,2.68132 -1.01292,4.44422 -2.3171,5.6703 -1.30437,1.22626 -3.29739,1.91318 -6.46446,2.48344 -1.99639,0.35948 -3.16756,0.66578 -4.06478,1.35348 -0.89412,0.68532 -1.52649,1.75873 -2.42989,3.67819 -0.7003,1.48791 -1.24027,2.43667 -2.26335,3.48835 -1.04337,1.07253 -2.49074,2.16497 -5.10826,4.11193 -1.26081,0.93782 -2.66089,1.95337 -3.77044,2.73713 -1.13521,0.80189 -2.05849,1.42697 -2.4938,1.66211 -1.66486,0.89932 -3.72246,1.48223 -5.79743,1.62055 -0.69461,0.0463 -1.38615,0.2257 -1.57576,0.40962 -0.18646,0.18086 -0.60423,1.15336 -0.93159,2.18949 -0.16147,0.51108 -0.48197,1.4535 -0.85897,2.55397 -0.30998,0.90483 -0.8886,2.58769 -1.23122,3.57937 -0.91537,2.64942 -1.4641,4.52957 -1.75002,6.11091 -0.28945,1.60085 -0.32556,2.95749 -0.23316,4.76699 0.19326,3.78524 0.80971,6.06475 2.42152,8.82514 0.42948,0.73552 0.75138,1.45841 0.71523,1.6007 -0.0998,0.39293 -1.87619,1.29617 -2.98455,1.51838 -1.3851,0.27772 -2.56991,0.19864 -3.93113,-0.27004 7e-5,10e-6 3.3e-4,5e-5 3.3e-4,5e-5 z"
         id="path77"
         transform="matrix(29.254541,0,0,-29.254541,-1204.6358,13422.39)" /><path
         id="path78"
         style="font-variation-settings:normal;opacity:1;vector-effect:none;fill:#000000;fill-opacity:1;stroke:#000000;stroke-width:0.16769;stroke-linecap:butt;stroke-linejoin:miter;stroke-miterlimit:4;stroke-dasharray:none;stroke-dashoffset:0;stroke-opacity:1;-inkscape-stroke:none"
         d="m 475.98715,429.8443 c -0.11789,-0.0431 -0.24173,-0.0486 -0.39313,-0.0308 -0.5326,0.0624 -1.03542,0.25899 -1.18334,0.46036 -0.0897,0.12179 -0.0993,0.19382 -0.0994,0.76736 -8e-5,0.6191 -0.004,0.63692 -0.13114,0.81474 -0.28733,0.40084 -0.61695,0.66691 -1.8047,1.47976 -2.0173,1.38057 -2.7982,2.1467 -2.96154,2.83739 -0.0475,0.20066 -0.0433,0.23542 0.0555,0.44665 0.0875,0.18717 0.15269,0.26317 0.35512,0.41623 0.13549,0.10243 0.35786,0.23824 0.49407,0.30045 7.3e-4,2.2e-4 0.002,6.2e-4 0.002,6.2e-4 0.3467,0.15686 1.04507,0.37559 1.47654,0.46288 1.27255,0.2563 2.44969,0.0508 3.31362,-0.5894 1.00557,-0.74515 1.74802,-2.01135 2.09341,-3.58766 0.11097,-0.50463 0.11369,-1.6804 0.006,-2.07206 -0.12649,-0.46037 -0.26282,-0.72467 -0.57978,-1.12369 -0.26762,-0.33689 -0.44689,-0.51096 -0.6433,-0.58235 0,0 -1.6e-4,-4.6e-4 -1.6e-4,-4.6e-4 z"
         transform="matrix(29.254541,0,0,-29.254541,-1204.6358,13422.39)" /><path
         style="font-variation-settings:normal;opacity:1;vector-effect:none;fill:#000000;fill-opacity:1;stroke:#000000;stroke-width:2.01241;stroke-linecap:butt;stroke-linejoin:miter;stroke-miterlimit:4;stroke-dasharray:none;stroke-dashoffset:0;stroke-opacity:1;-inkscape-stroke:none"
         d="m 173.42319,288.94858 c -0.61076,-0.72352 -2.0592,-4.35018 -3.24132,-8.33763 -1.44895,-4.88748 -2.15935,-7.47249 -3.29802,-8.7076 -1.12662,-1.22204 -2.63887,-1.06499 -5.62626,-0.6611 -2.62916,0.35547 -5.02937,0.42354 -5.32823,0.12785 -0.37796,-0.37392 0.19214,-1.26479 1.8372,-2.91353 1.31077,-1.3137 2.38268,-2.75721 2.38225,-3.19114 -7.5e-4,-0.74868 1.02673,-2.36908 2.30665,-3.94265 1.2785,-1.57183 2.81372,-3.09675 3.82219,-3.56866 1.10102,-0.51523 3.30624,-0.847 4.93011,-0.73352 2.22524,0.15551 3.49009,0.17137 4.52681,-0.32061 1.03216,-0.48982 1.83687,-1.48562 3.12018,-3.35573 0.36319,-0.52926 0.84704,-1.23638 1.4191,-2.07836 0.51694,-0.76086 0.95692,-1.41311 0.95692,-1.41311 0.93817,-0.26528 2.20126,-0.61946 3.68196,-1.02544 1.34171,-0.36787 2.48389,-0.67362 2.48389,-0.67362 3.31829,-0.88991 8.11738,-2.52397 10.33402,-3.54861 -0.52457,0.23957 1.55769,-0.71855 2.08225,-0.95811 1.04377,-0.47802 2.08787,-0.95157 2.0829,-0.94933 0.001,0.001 0.25563,0.43271 0.51033,0.86221 0.25469,0.42949 0.50945,0.8572 0.51044,0.85886 0.54653,0.91727 1.57324,2.84743 2.21528,4.15539 1.05624,2.15177 1.43453,2.37045 3.2842,2.05232 1.13951,-0.19596 2.87347,-0.66804 3.80943,-1.04004 1.51823,-0.60343 1.7205,-0.49136 1.72676,0.8819 0.005,1.02749 -0.48632,1.8518 -1.44578,2.44355 -3.19865,1.97277 -4.02789,5.1553 -2.79144,10.40545 0.65958,2.80063 0.0947,3.66115 -2.7684,4.36796 -2.30289,0.56851 -2.47438,0.76778 -2.96908,3.11291 -0.32837,1.5567 -0.78279,2.58174 -1.88828,3.56573 -1.10609,0.98453 -2.86382,1.9274 -5.80037,3.31399 -4.97568,2.34943 -7.88274,3.77862 -9.95992,4.99495 -2.10256,1.2312 -3.39835,2.26545 -5.27504,3.89074 -4.3758,3.78964 -6.06142,4.24403 -7.63073,2.38498 z"
         id="path79"
         transform="matrix(29.254541,0,0,-29.254541,-1204.6358,13422.39)" /></g></g></svg>
